<svg width="500" height="500" viewBox="0 0 500 500" fill="none" xmlns="http://www.w3.org/2000/svg">
<g clip-path="url(#clip0_104_117)">
<path d="M314.738 241.061V240.181H315.178C315.584 240.181 315.964 240.008 316.318 239.661C316.671 239.308 316.981 238.894 317.248 238.421C317.508 237.954 317.698 237.441 317.818 236.881C317.931 236.328 317.988 235.814 317.988 235.341V189.061L295.288 242.031L273.728 191.781V235.341C273.728 235.814 273.788 236.328 273.908 236.881C274.021 237.441 274.211 237.954 274.478 238.421C274.738 238.894 275.044 239.308 275.398 239.661C275.751 240.008 276.161 240.181 276.628 240.181H277.068V241.061H267.478V240.181H267.918C268.331 240.181 268.714 240.008 269.068 239.661C269.414 239.308 269.708 238.894 269.948 238.421C270.181 237.954 270.354 237.441 270.468 236.881C270.588 236.328 270.648 235.814 270.648 235.341V188.441C270.648 188.028 270.588 187.558 270.468 187.031C270.354 186.504 270.181 186.008 269.948 185.541C269.708 185.068 269.414 184.671 269.068 184.351C268.714 184.024 268.331 183.861 267.918 183.861H267.478V182.981H276.458L296.868 231.121L317.288 182.981H327.228V183.861H326.788C326.321 183.861 325.911 184.024 325.558 184.351C325.204 184.671 324.898 185.068 324.638 185.541C324.371 186.008 324.181 186.504 324.068 187.031C323.948 187.558 323.888 188.028 323.888 188.441V235.341C323.888 235.814 323.948 236.328 324.068 236.881C324.181 237.441 324.371 237.954 324.638 238.421C324.898 238.894 325.204 239.308 325.558 239.661C325.911 240.008 326.321 240.181 326.788 240.181H327.228V241.061H314.738Z" fill="white"/>
<path d="M374.837 241.061V240.181H375.277C376.684 240.181 377.387 239.538 377.387 238.251C377.387 237.778 377.3 237.278 377.127 236.751L369.207 215.371H353.807L346.147 236.401C345.974 236.868 345.887 237.308 345.887 237.721C345.887 238.481 346.094 239.081 346.507 239.521C346.914 239.961 347.354 240.181 347.827 240.181H348.267V241.061H338.497V240.181H338.937C339.697 240.181 340.444 239.728 341.177 238.821C341.91 237.914 342.514 236.844 342.987 235.611L363.137 181.931L382.847 235.081C383.26 236.254 383.834 237.398 384.567 238.511C385.3 239.624 386.254 240.181 387.427 240.181H387.867V241.061H374.837ZM361.467 193.981L354.687 212.381H368.237L361.467 193.981Z" fill="white"/>
<path d="M86.0466 328.55V328.27H86.1866C86.3199 328.27 86.4433 328.213 86.5566 328.1C86.6699 327.986 86.7666 327.856 86.8466 327.71C86.9333 327.556 86.9933 327.393 87.0266 327.22C87.0666 327.04 87.0866 326.876 87.0866 326.73V312L79.8666 328.85L73.0066 312.87V326.73C73.0066 326.876 73.0233 327.04 73.0566 327.22C73.0966 327.393 73.1566 327.556 73.2366 327.71C73.3233 327.856 73.4233 327.986 73.5366 328.1C73.6499 328.213 73.7799 328.27 73.9266 328.27H74.0666V328.55H71.0166V328.27H71.1566C71.2833 328.27 71.4033 328.213 71.5166 328.1C71.6299 327.986 71.7233 327.856 71.7966 327.71C71.8699 327.556 71.9266 327.393 71.9666 327.22C72.0066 327.04 72.0266 326.876 72.0266 326.73V311.8C72.0266 311.673 72.0066 311.523 71.9666 311.35C71.9266 311.183 71.8699 311.026 71.7966 310.88C71.7233 310.726 71.6299 310.6 71.5166 310.5C71.4033 310.4 71.2833 310.35 71.1566 310.35H71.0166V310.07H73.8666L80.3666 325.38L86.8666 310.07H90.0266V310.35H89.8866C89.7399 310.35 89.6099 310.4 89.4966 310.5C89.3833 310.6 89.2833 310.726 89.1966 310.88C89.1166 311.026 89.0566 311.183 89.0166 311.35C88.9833 311.523 88.9666 311.673 88.9666 311.8V326.73C88.9666 326.876 88.9833 327.04 89.0166 327.22C89.0566 327.393 89.1166 327.556 89.1966 327.71C89.2833 327.856 89.3833 327.986 89.4966 328.1C89.6099 328.213 89.7399 328.27 89.8866 328.27H90.0266V328.55H86.0466Z" fill="white"/>
<path d="M114.136 328.549V328.269H114.276C114.723 328.269 114.946 328.063 114.946 327.649C114.946 327.503 114.92 327.343 114.866 327.169L112.346 320.369H107.446L105.006 327.059C104.953 327.213 104.926 327.353 104.926 327.479C104.926 327.726 104.99 327.919 105.116 328.059C105.25 328.199 105.39 328.269 105.536 328.269H105.676V328.549H102.566V328.269H102.706C102.953 328.269 103.193 328.123 103.426 327.829C103.66 327.543 103.85 327.203 103.996 326.809L110.406 309.729L116.686 326.639C116.813 327.013 116.993 327.376 117.226 327.729C117.46 328.089 117.763 328.269 118.136 328.269H118.276V328.549H114.136ZM109.876 313.569L107.726 319.419H112.036L109.876 313.569Z" fill="white"/>
<path d="M134.466 328.27H134.606V328.55H130.656V328.27H130.796C130.923 328.27 131.043 328.213 131.156 328.1C131.27 327.986 131.37 327.856 131.456 327.71C131.536 327.556 131.596 327.393 131.636 327.22C131.67 327.04 131.686 326.876 131.686 326.73V311.8C131.686 311.673 131.67 311.523 131.636 311.35C131.596 311.183 131.536 311.026 131.456 310.88C131.37 310.726 131.27 310.6 131.156 310.5C131.043 310.4 130.923 310.35 130.796 310.35H130.656V310.07H135.526C137.393 310.07 138.836 310.433 139.856 311.16C140.87 311.886 141.376 312.96 141.376 314.38C141.376 315.086 141.26 315.706 141.026 316.24C140.793 316.773 140.48 317.23 140.086 317.61C139.7 317.996 139.24 318.306 138.706 318.54C138.173 318.773 137.606 318.943 137.006 319.05L139.026 322.13C139.513 322.876 140.006 323.61 140.506 324.33C141.013 325.05 141.51 325.793 141.996 326.56C142.123 326.746 142.266 326.943 142.426 327.15C142.586 327.35 142.756 327.536 142.936 327.71C143.11 327.876 143.296 328.01 143.496 328.11C143.69 328.216 143.89 328.27 144.096 328.27V328.55H142.886C142.14 328.55 141.53 328.366 141.056 328C140.583 327.633 140.186 327.21 139.866 326.73C139.026 325.496 138.19 324.243 137.356 322.97C136.53 321.703 135.706 320.453 134.886 319.22C134.68 319.2 134.46 319.176 134.226 319.15C133.993 319.123 133.773 319.09 133.566 319.05V326.73C133.566 326.876 133.586 327.04 133.626 327.22C133.66 327.393 133.72 327.556 133.806 327.71C133.886 327.856 133.98 327.986 134.086 328.1C134.186 328.213 134.313 328.27 134.466 328.27ZM133.986 311.02H133.566V318.13H133.706C133.853 318.15 134.09 318.163 134.416 318.17C134.743 318.183 135.15 318.19 135.636 318.19C136.03 318.19 136.446 318.126 136.886 318C137.326 317.88 137.736 317.676 138.116 317.39C138.496 317.096 138.813 316.716 139.066 316.25C139.32 315.783 139.446 315.196 139.446 314.49C139.446 313.783 139.31 313.203 139.036 312.75C138.77 312.303 138.396 311.95 137.916 311.69C137.443 311.43 136.87 311.253 136.196 311.16C135.523 311.066 134.786 311.02 133.986 311.02Z" fill="white"/>
<path d="M156.587 310.35V310.07H160.587V310.35H160.447C160.314 310.35 160.194 310.4 160.087 310.5C159.974 310.6 159.88 310.72 159.807 310.86C159.727 311 159.664 311.16 159.617 311.34C159.57 311.52 159.547 311.673 159.547 311.8V326.73C159.547 326.876 159.567 327.04 159.607 327.22C159.647 327.393 159.707 327.556 159.787 327.71C159.874 327.856 159.967 327.986 160.067 328.1C160.174 328.213 160.3 328.27 160.447 328.27H160.587V328.55H156.587V328.27H156.727C156.874 328.27 157.004 328.216 157.117 328.11C157.23 328.01 157.327 327.88 157.407 327.72C157.494 327.56 157.554 327.393 157.587 327.22C157.627 327.04 157.647 326.876 157.647 326.73V311.8C157.647 311.673 157.627 311.523 157.587 311.35C157.554 311.183 157.494 311.026 157.407 310.88C157.327 310.726 157.23 310.6 157.117 310.5C157.004 310.4 156.874 310.35 156.727 310.35H156.587Z" fill="white"/>
<path d="M184.666 328.549V328.269H184.806C185.253 328.269 185.476 328.063 185.476 327.649C185.476 327.503 185.45 327.343 185.396 327.169L182.876 320.369H177.976L175.536 327.059C175.483 327.213 175.456 327.353 175.456 327.479C175.456 327.726 175.52 327.919 175.646 328.059C175.78 328.199 175.92 328.269 176.066 328.269H176.206V328.549H173.106V328.269H173.246C173.486 328.269 173.723 328.123 173.956 327.829C174.19 327.543 174.38 327.203 174.526 326.809L180.946 309.729L187.216 326.639C187.343 327.013 187.523 327.376 187.756 327.729C187.99 328.089 188.293 328.269 188.666 328.269H188.806V328.549H184.666ZM180.406 313.569L178.256 319.419H182.566L180.406 313.569Z" fill="white"/>
<path d="M229.857 328.549V328.269H229.997C230.444 328.269 230.667 328.063 230.667 327.649C230.667 327.503 230.64 327.343 230.587 327.169L228.067 320.369H223.167L220.727 327.059C220.674 327.213 220.647 327.353 220.647 327.479C220.647 327.726 220.714 327.919 220.847 328.059C220.974 328.199 221.114 328.269 221.267 328.269H221.407V328.549H218.297V328.269H218.437C218.677 328.269 218.914 328.123 219.147 327.829C219.38 327.543 219.574 327.203 219.727 326.809L226.137 309.729L232.407 326.639C232.54 327.013 232.724 327.376 232.957 327.729C233.19 328.089 233.494 328.269 233.867 328.269H234.007V328.549H229.857ZM225.607 313.569L223.447 319.419H227.757L225.607 313.569Z" fill="white"/>
<path d="M246.347 310.35V310.07H250.327C252.4 310.07 253.973 310.466 255.047 311.26C256.12 312.053 256.657 313.176 256.657 314.63C256.657 315.416 256.47 316.116 256.097 316.73C255.723 317.343 255.233 317.86 254.627 318.28C254.02 318.7 253.337 319.023 252.577 319.25C251.823 319.476 251.073 319.59 250.327 319.59H249.267V326.73C249.267 326.876 249.283 327.04 249.317 327.22C249.357 327.393 249.417 327.556 249.497 327.71C249.583 327.856 249.677 327.986 249.777 328.1C249.883 328.213 250.01 328.27 250.157 328.27H250.297V328.55H246.347V328.27H246.487C246.62 328.27 246.743 328.213 246.857 328.1C246.97 327.986 247.063 327.856 247.137 327.71C247.21 327.556 247.267 327.393 247.307 327.22C247.34 327.04 247.357 326.876 247.357 326.73V311.8C247.357 311.54 247.283 311.243 247.137 310.91C246.983 310.57 246.767 310.383 246.487 310.35H246.347ZM249.657 311.05H249.267V318.61H250.107C250.853 318.61 251.52 318.506 252.107 318.3C252.693 318.093 253.183 317.823 253.577 317.49C253.97 317.15 254.267 316.766 254.467 316.34C254.673 315.906 254.777 315.466 254.777 315.02C254.777 314.48 254.69 313.973 254.517 313.5C254.337 313.02 254.047 312.6 253.647 312.24C253.247 311.873 252.72 311.583 252.067 311.37C251.413 311.156 250.61 311.05 249.657 311.05Z" fill="white"/>
<path d="M276.197 328.549V328.269H276.337C276.783 328.269 277.007 328.063 277.007 327.649C277.007 327.503 276.98 327.343 276.927 327.169L274.407 320.369H269.507L267.067 327.059C267.013 327.213 266.987 327.353 266.987 327.479C266.987 327.726 267.053 327.919 267.187 328.059C267.313 328.199 267.453 328.269 267.607 328.269H267.747V328.549H264.637V328.269H264.777C265.017 328.269 265.253 328.123 265.487 327.829C265.72 327.543 265.913 327.203 266.067 326.809L272.477 309.729L278.747 326.639C278.88 327.013 279.063 327.376 279.297 327.729C279.53 328.089 279.833 328.269 280.207 328.269H280.347V328.549H276.197ZM271.947 313.569L269.787 319.419H274.097L271.947 313.569Z" fill="white"/>
<path d="M296.527 328.27H296.667V328.55H292.717V328.27H292.857C292.99 328.27 293.113 328.213 293.227 328.1C293.333 327.986 293.43 327.856 293.517 327.71C293.603 327.556 293.663 327.393 293.697 327.22C293.737 327.04 293.757 326.876 293.757 326.73V311.8C293.757 311.673 293.737 311.523 293.697 311.35C293.663 311.183 293.603 311.026 293.517 310.88C293.43 310.726 293.333 310.6 293.227 310.5C293.113 310.4 292.99 310.35 292.857 310.35H292.717V310.07H297.587C299.453 310.07 300.897 310.433 301.917 311.16C302.937 311.886 303.447 312.96 303.447 314.38C303.447 315.086 303.33 315.706 303.097 316.24C302.863 316.773 302.55 317.23 302.157 317.61C301.763 317.996 301.3 318.306 300.767 318.54C300.233 318.773 299.67 318.943 299.077 319.05L301.087 322.13C301.573 322.876 302.07 323.61 302.577 324.33C303.077 325.05 303.57 325.793 304.057 326.56C304.19 326.746 304.337 326.943 304.497 327.15C304.65 327.35 304.817 327.536 304.997 327.71C305.177 327.876 305.363 328.01 305.557 328.11C305.75 328.216 305.95 328.27 306.157 328.27V328.55H304.957C304.21 328.55 303.597 328.366 303.117 328C302.643 327.633 302.247 327.21 301.927 326.73C301.087 325.496 300.253 324.243 299.427 322.97C298.593 321.703 297.767 320.453 296.947 319.22C296.74 319.2 296.52 319.176 296.287 319.15C296.053 319.123 295.833 319.09 295.627 319.05V326.73C295.627 326.876 295.647 327.04 295.687 327.22C295.727 327.393 295.787 327.556 295.867 327.71C295.953 327.856 296.047 327.986 296.147 328.1C296.253 328.213 296.38 328.27 296.527 328.27ZM296.047 311.02H295.627V318.13H295.767C295.92 318.15 296.16 318.163 296.487 318.17C296.813 318.183 297.22 318.19 297.707 318.19C298.093 318.19 298.507 318.126 298.947 318C299.387 317.88 299.797 317.676 300.177 317.39C300.563 317.096 300.883 316.716 301.137 316.25C301.383 315.783 301.507 315.196 301.507 314.49C301.507 313.783 301.373 313.203 301.107 312.75C300.833 312.303 300.46 311.95 299.987 311.69C299.507 311.43 298.933 311.253 298.267 311.16C297.593 311.066 296.853 311.02 296.047 311.02Z" fill="white"/>
<path d="M318.536 328.55V328.27H318.676C318.823 328.27 318.953 328.216 319.066 328.11C319.179 328.01 319.276 327.883 319.356 327.73C319.443 327.583 319.509 327.426 319.556 327.26C319.603 327.093 319.626 326.933 319.626 326.78V311.8C319.626 311.673 319.603 311.523 319.556 311.35C319.509 311.183 319.443 311.026 319.356 310.88C319.276 310.726 319.179 310.6 319.066 310.5C318.953 310.4 318.823 310.35 318.676 310.35H318.536V310.07H329.316V312.67H329.036C328.996 312.243 328.826 311.866 328.526 311.54C328.233 311.213 327.766 311.05 327.126 311.05H321.506V318.13H326.146C326.579 318.13 326.939 318 327.226 317.74C327.519 317.48 327.666 317.17 327.666 316.81H327.946V320.31H327.666C327.666 319.976 327.526 319.69 327.246 319.45C326.966 319.203 326.599 319.08 326.146 319.08H321.506V327.57H327.636C327.989 327.57 328.296 327.483 328.556 327.31C328.816 327.143 329.036 326.943 329.216 326.71C329.396 326.476 329.526 326.226 329.606 325.96C329.693 325.686 329.736 325.456 329.736 325.27H330.016V328.55H318.536Z" fill="white"/>
<path d="M351.747 310.789C350.36 310.789 349.16 311.039 348.147 311.539C347.127 312.033 346.28 312.676 345.607 313.469C344.94 314.263 344.443 315.153 344.117 316.139C343.79 317.133 343.627 318.113 343.627 319.079C343.627 320.179 343.84 321.259 344.267 322.319C344.693 323.373 345.287 324.306 346.047 325.119C346.8 325.926 347.68 326.579 348.687 327.079C349.7 327.573 350.793 327.819 351.967 327.819C352.3 327.819 352.697 327.783 353.157 327.709C353.617 327.629 354.07 327.483 354.517 327.269C354.963 327.056 355.377 326.753 355.757 326.359C356.143 325.966 356.44 325.453 356.647 324.819H356.927V327.929C356.647 327.929 356.35 327.966 356.037 328.039C355.73 328.113 355.39 328.196 355.017 328.289C354.53 328.423 353.993 328.546 353.407 328.659C352.82 328.773 352.2 328.829 351.547 328.829C349.92 328.829 348.493 328.549 347.267 327.989C346.033 327.429 345.007 326.699 344.187 325.799C343.36 324.906 342.743 323.893 342.337 322.759C341.923 321.633 341.717 320.489 341.717 319.329C341.717 318.176 341.923 317.029 342.337 315.889C342.743 314.749 343.367 313.726 344.207 312.819C345.047 311.919 346.103 311.189 347.377 310.629C348.643 310.069 350.137 309.789 351.857 309.789C352.47 309.789 353.023 309.843 353.517 309.949C354.017 310.063 354.46 310.176 354.847 310.289C355.127 310.383 355.383 310.453 355.617 310.499C355.85 310.546 356.08 310.569 356.307 310.569V313.679H356.027C355.913 313.099 355.707 312.619 355.407 312.239C355.113 311.853 354.763 311.556 354.357 311.349C353.957 311.149 353.53 311.006 353.077 310.919C352.617 310.833 352.173 310.789 351.747 310.789Z" fill="white"/>
<path d="M370.137 310.35V310.07H374.147V310.35H374.007C373.873 310.35 373.75 310.4 373.637 310.5C373.523 310.6 373.43 310.72 373.357 310.86C373.283 311 373.223 311.16 373.177 311.34C373.13 311.52 373.107 311.673 373.107 311.8V326.73C373.107 326.876 373.127 327.04 373.167 327.22C373.2 327.393 373.26 327.556 373.347 327.71C373.427 327.856 373.52 327.986 373.627 328.1C373.727 328.213 373.853 328.27 374.007 328.27H374.147V328.55H370.137V328.27H370.277C370.43 328.27 370.56 328.216 370.667 328.11C370.78 328.01 370.88 327.88 370.967 327.72C371.047 327.56 371.107 327.393 371.147 327.22C371.187 327.04 371.207 326.876 371.207 326.73V311.8C371.207 311.673 371.187 311.523 371.147 311.35C371.107 311.183 371.047 311.026 370.967 310.88C370.88 310.726 370.78 310.6 370.667 310.5C370.56 310.4 370.43 310.35 370.277 310.35H370.137Z" fill="white"/>
<path d="M387.496 328.55V328.27H387.636C387.769 328.27 387.893 328.213 388.006 328.1C388.113 327.986 388.209 327.856 388.296 327.71C388.383 327.556 388.443 327.393 388.476 327.22C388.516 327.04 388.536 326.876 388.536 326.73V311.8C388.536 311.673 388.516 311.523 388.476 311.35C388.443 311.183 388.386 311.026 388.306 310.88C388.233 310.726 388.139 310.6 388.026 310.5C387.919 310.4 387.789 310.35 387.636 310.35H387.496V310.07H392.906C394.379 310.07 395.703 310.326 396.876 310.84C398.056 311.353 399.049 312.043 399.856 312.91C400.669 313.776 401.293 314.77 401.726 315.89C402.153 317.01 402.366 318.176 402.366 319.39C402.366 320.53 402.159 321.646 401.746 322.74C401.339 323.826 400.726 324.8 399.906 325.66C399.079 326.52 398.053 327.216 396.826 327.75C395.593 328.283 394.163 328.55 392.536 328.55H387.496ZM400.466 319.81C400.466 318.616 400.249 317.486 399.816 316.42C399.389 315.36 398.789 314.433 398.016 313.64C397.236 312.846 396.319 312.216 395.266 311.75C394.213 311.283 393.069 311.05 391.836 311.05H390.406V327.57H391.896C392.903 327.57 393.916 327.413 394.936 327.1C395.949 326.793 396.866 326.32 397.686 325.68C398.513 325.033 399.183 324.223 399.696 323.25C400.209 322.283 400.466 321.136 400.466 319.81Z" fill="white"/>
<path d="M426.166 328.549V328.269H426.306C426.753 328.269 426.976 328.063 426.976 327.649C426.976 327.503 426.95 327.343 426.896 327.169L424.376 320.369H419.476L417.036 327.059C416.983 327.213 416.956 327.353 416.956 327.479C416.956 327.726 417.02 327.919 417.146 328.059C417.28 328.199 417.42 328.269 417.566 328.269H417.706V328.549H414.606V328.269H414.746C414.986 328.269 415.223 328.123 415.456 327.829C415.69 327.543 415.88 327.203 416.026 326.809L422.446 309.729L428.716 326.639C428.843 327.013 429.023 327.376 429.256 327.729C429.49 328.089 429.793 328.269 430.166 328.269H430.306V328.549H426.166ZM421.906 313.569L419.756 319.419H424.066L421.906 313.569Z" fill="white"/>
<path d="M209.895 200.806C209.531 201.335 209.074 201.742 208.53 202C207.848 202.325 207.115 202.486 206.379 202.486C205.768 202.486 205.15 202.375 204.553 202.15C202.988 201.564 201.676 200.27 200.951 198.605C200.637 197.883 200.969 197.04 201.691 196.725C202.413 196.407 203.256 196.74 203.57 197.465C203.985 198.412 204.725 199.166 205.554 199.473C205.972 199.63 206.611 199.745 207.301 199.416C207.476 199.33 207.73 199.005 207.862 198.355C208.298 196.25 207.287 192.308 203.134 187.555C199.554 183.457 195.916 183.285 193.739 183.7C194.815 184.833 195.426 185.683 195.505 185.794C195.955 186.441 195.798 187.33 195.155 187.781C194.904 187.956 194.619 188.038 194.336 188.038C193.886 188.038 193.443 187.827 193.164 187.431C193.107 187.352 187.486 179.505 178.599 179.505C176.097 179.505 172.556 179.876 168.783 181.366C169.916 182.085 170.741 182.967 171.177 184C171.785 185.433 171.584 186.887 170.612 188.095C169.012 190.089 165.381 191.261 161.6 191.847C161.218 192.433 160.56 193.816 160.978 196.018C161.125 196.793 160.614 197.54 159.842 197.686C159.753 197.704 159.663 197.711 159.574 197.711C158.902 197.711 158.302 197.233 158.173 196.546C157.837 194.767 158.012 193.327 158.348 192.208C155.593 192.405 153.053 192.315 151.498 192.03C150.723 191.887 150.208 191.14 150.355 190.364C150.498 189.589 151.241 189.074 152.02 189.221C156.504 190.054 166.285 188.924 168.387 186.305C168.697 185.915 168.744 185.583 168.544 185.115C168.015 183.864 166 182.857 163.155 182.417C157.802 181.588 150.094 182.964 146.981 186.616C143.497 190.704 145.877 197.479 145.902 197.543C146.17 198.286 145.784 199.105 145.044 199.373C144.884 199.43 144.719 199.459 144.559 199.459C143.976 199.459 143.429 199.101 143.215 198.519C143.161 198.372 142.6 196.782 142.343 194.591C140.685 194.738 138.069 195.285 136.107 197.204C134.471 198.801 133.642 201.052 133.642 203.893C133.642 214.267 141.66 219.427 147.078 219.645L147.307 219.656C148.844 219.717 151.852 219.838 154.182 218.48C153.589 216.436 153.307 214.26 153.307 212.123C153.307 206.895 156.466 203.132 159.421 201.356C161.965 199.826 164.577 199.498 166.414 200.47C167.826 201.22 168.601 202.496 168.601 204.061C168.601 206.952 165.971 210.079 163.43 211.429C162.733 211.797 161.869 211.537 161.497 210.836C161.125 210.139 161.39 209.275 162.09 208.903C164.002 207.888 165.746 205.58 165.746 204.057C165.746 203.553 165.553 203.243 165.074 202.992C164.327 202.596 162.744 202.692 160.897 203.804C158.61 205.176 156.169 208.085 156.169 212.119C156.169 215.357 157.009 225.912 167.804 225.912C174.308 225.912 178.381 219.687 181.08 215.564C181.973 214.199 182.681 213.12 183.353 212.444C183.928 211.866 184.564 211.315 185.204 210.765C187.241 209.003 189.002 207.481 189.002 205.022C189.002 202.232 187.048 201.524 186.826 201.453C186.083 201.213 185.658 200.416 185.886 199.67C186.115 198.923 186.887 198.494 187.641 198.712C189.099 199.133 191.861 200.999 191.861 205.022C191.861 207.099 191.079 208.689 190.01 210.029C195.049 209.754 198.068 213.206 198.108 213.252C198.615 213.856 198.54 214.757 197.936 215.268C197.668 215.493 197.339 215.603 197.014 215.603C196.61 215.603 196.207 215.432 195.924 215.103C195.746 214.896 191.818 210.54 185.275 214.578C184.814 215.078 184.192 216.021 183.467 217.129C180.862 221.11 176.642 227.532 169.78 228.6C169.827 228.843 169.913 229.107 170.116 229.372C170.652 230.079 172.296 231.259 177.235 231.155C187.09 231.026 191.707 240.267 192.965 243.394H196.881C195.613 240.814 193.908 236.508 194.698 233.275C195.613 229.53 198.085 229.44 200.483 229.355C201.812 229.304 203.32 229.251 205.168 228.74C207.812 228.004 208.255 225.817 208.216 224.28C207.09 224.595 205.947 224.738 204.843 224.755C202.448 224.798 200.226 224.105 198.075 223.44C193.415 222.008 190.049 220.971 186.647 227.396C186.39 227.882 185.896 228.157 185.382 228.157C185.157 228.157 184.928 228.104 184.714 227.993C184.017 227.625 183.749 226.757 184.12 226.06C188.627 217.544 194.094 219.227 198.918 220.71C200.859 221.307 202.867 221.925 204.804 221.897C205.608 221.886 207.019 221.861 208.477 221.203C208.627 221.082 208.802 220.982 209.003 220.928H209.01C211.365 219.61 213.687 216.458 213.687 208.835C213.687 205.83 212.019 202.46 209.896 200.799L209.895 200.806ZM153.989 204.051C153.718 204.791 152.892 205.169 152.152 204.898C149.244 203.826 148.55 204.633 146.71 206.799C146.438 207.12 146.138 207.46 145.831 207.803C145.595 208.625 145.352 210.144 145.784 210.919C145.888 211.105 146.056 211.309 146.513 211.412C147.285 211.587 147.764 212.352 147.593 213.12C147.443 213.785 146.853 214.235 146.199 214.235C146.095 214.235 145.988 214.225 145.881 214.199C144.723 213.939 143.826 213.281 143.283 212.306C142.836 211.502 142.69 210.576 142.69 209.704C142.383 209.758 142.072 209.79 141.768 209.79C139.992 209.79 138.316 208.954 137.373 208.225C136.747 207.742 136.629 206.845 137.112 206.22C137.594 205.595 138.488 205.477 139.113 205.956C139.395 206.17 141.85 207.928 143.498 206.127C143.873 205.72 144.212 205.319 144.53 204.944C146.496 202.636 148.35 200.449 153.139 202.214C153.878 202.486 154.257 203.308 153.986 204.051L153.989 204.051ZM168.89 199.709C170.648 198.162 171.17 195.385 171.174 195.357C171.313 194.581 172.06 194.06 172.832 194.202C173.607 194.342 174.125 195.078 173.99 195.853C173.961 196.007 173.303 199.631 170.781 201.853C170.509 202.093 170.173 202.211 169.837 202.211C169.441 202.211 169.048 202.046 168.765 201.725C168.244 201.131 168.301 200.231 168.894 199.709L168.89 199.709ZM182.805 208.335C182.119 208.721 181.251 208.486 180.861 207.803C180.661 207.467 180.072 206.752 179.511 206.699C178.975 206.642 178.349 207.253 178.031 207.617C177.049 208.736 176.127 210.637 175.237 212.474C173.479 216.104 171.66 219.86 168.376 220.035C168.19 220.046 168.008 220.049 167.833 220.049C166.103 220.049 164.817 219.581 164.002 218.656C163.462 218.041 162.887 216.94 163.209 215.161C163.351 214.385 164.091 213.878 164.87 214.01C165.646 214.153 166.16 214.896 166.021 215.672C165.967 215.965 165.914 216.497 166.146 216.765C166.421 217.076 167.2 217.233 168.226 217.18C169.823 217.094 171.334 213.978 172.664 211.23C173.636 209.222 174.644 207.142 175.883 205.734C176.126 205.455 176.369 205.23 176.605 205.023C177.127 203.14 176.266 202.55 175.969 202.418C175.265 202.1 174.919 201.267 175.219 200.552C175.519 199.838 176.312 199.48 177.034 199.763C178.074 200.163 179.603 201.464 179.639 203.851C179.696 203.854 179.757 203.854 179.811 203.858C181.976 204.08 183.209 206.152 183.345 206.388C183.734 207.074 183.495 207.946 182.805 208.335ZM183.341 192.227C180.204 189.915 175.355 192.323 175.308 192.348C174.604 192.706 173.747 192.423 173.386 191.723C173.028 191.022 173.304 190.161 174.008 189.804C174.197 189.707 177.535 188.046 181.097 188.435C181.037 185.584 182.845 184.379 182.941 184.319C183.606 183.89 184.488 184.086 184.917 184.751C185.335 185.401 185.157 186.266 184.524 186.702C184.446 186.766 183.681 187.467 184.088 189.336C184.41 189.507 184.728 189.7 185.039 189.929C188.73 192.645 191.289 193.313 194.487 192.38C195.244 192.155 196.038 192.595 196.259 193.352C196.481 194.11 196.045 194.903 195.287 195.125C194.122 195.464 193.007 195.639 191.91 195.639C189.155 195.639 186.49 194.549 183.345 192.23L183.341 192.227ZM210.139 208.207C209.431 209.53 207.616 211.477 204.996 211.477C204.775 211.477 204.546 211.459 204.31 211.431C204.332 211.877 204.41 212.288 204.65 212.621C205.179 213.36 206.483 213.911 208.416 214.214C209.195 214.336 209.728 215.068 209.606 215.851C209.495 216.555 208.888 217.059 208.198 217.059C208.123 217.059 208.048 217.052 207.973 217.041C205.189 216.601 203.342 215.701 202.331 214.289C201.08 212.542 201.434 210.48 201.695 208.976C201.805 208.332 201.973 207.364 201.82 207.1C200.837 205.413 196.981 207.117 196.946 207.135C196.234 207.468 195.38 207.164 195.044 206.449C194.709 205.735 195.016 204.888 195.727 204.548C198.032 203.462 202.431 202.469 204.289 205.663C204.811 206.56 204.789 207.564 204.653 208.572C206.515 208.786 207.502 207.093 207.623 206.867C207.995 206.171 208.859 205.906 209.556 206.278C210.253 206.649 210.514 207.514 210.146 208.211L210.139 208.207Z" fill="white"/>
<path d="M252.167 279.433V143.628C252.167 142.651 251.516 142 250.539 142C249.562 142 248.91 142.651 248.91 143.628V279.27C248.91 280.247 249.562 280.899 250.539 280.899C251.516 280.899 252.167 280.247 252.167 279.433Z" fill="white"/>
<path d="M101.159 349.468V349.318H103.299C104.413 349.318 105.259 349.532 105.839 349.958C106.419 350.385 106.709 350.992 106.709 351.778C106.709 352.198 106.609 352.575 106.409 352.908C106.203 353.235 105.936 353.512 105.609 353.738C105.283 353.965 104.916 354.138 104.509 354.258C104.103 354.378 103.699 354.438 103.299 354.438H102.729V358.278C102.729 358.358 102.739 358.448 102.759 358.548C102.779 358.642 102.813 358.728 102.859 358.808C102.906 358.888 102.956 358.958 103.009 359.018C103.063 359.078 103.129 359.108 103.209 359.108H103.289V359.258H101.159V359.108H101.239C101.306 359.108 101.369 359.078 101.429 359.018C101.489 358.958 101.539 358.888 101.579 358.808C101.626 358.728 101.659 358.642 101.679 358.548C101.699 358.448 101.709 358.358 101.709 358.278V350.248C101.709 350.108 101.666 349.948 101.579 349.768C101.499 349.588 101.386 349.488 101.239 349.468H101.159ZM102.939 349.848H102.729V353.908H103.179C103.579 353.908 103.939 353.855 104.259 353.748C104.573 353.635 104.836 353.488 105.049 353.308C105.263 353.128 105.423 352.922 105.529 352.688C105.643 352.462 105.699 352.228 105.699 351.988C105.699 351.695 105.649 351.422 105.549 351.168C105.456 350.908 105.303 350.682 105.089 350.488C104.869 350.288 104.586 350.132 104.239 350.018C103.886 349.905 103.453 349.848 102.939 349.848Z" fill="white"/>
<path d="M117.549 356.598C117.549 357.098 117.449 357.525 117.249 357.878C117.049 358.238 116.789 358.528 116.469 358.748C116.156 358.968 115.803 359.128 115.409 359.228C115.009 359.328 114.613 359.378 114.219 359.378C113.819 359.378 113.473 359.338 113.179 359.258C112.893 359.178 112.626 359.105 112.379 359.038C112.219 358.985 112.076 358.942 111.949 358.908C111.816 358.875 111.686 358.858 111.559 358.858V357.138H111.709C111.709 357.518 111.806 357.822 111.999 358.048C112.193 358.275 112.423 358.448 112.689 358.568C112.949 358.688 113.209 358.765 113.469 358.798C113.729 358.838 113.919 358.858 114.039 358.858C114.473 358.858 114.846 358.795 115.159 358.668C115.466 358.542 115.719 358.375 115.919 358.168C116.126 357.962 116.276 357.732 116.369 357.478C116.463 357.232 116.509 356.978 116.509 356.718C116.509 356.385 116.439 356.105 116.299 355.878C116.159 355.652 115.976 355.455 115.749 355.288C115.523 355.115 115.266 354.968 114.979 354.848C114.686 354.728 114.389 354.608 114.089 354.488C113.743 354.355 113.406 354.218 113.079 354.078C112.746 353.938 112.449 353.765 112.189 353.558C111.929 353.352 111.719 353.105 111.559 352.818C111.399 352.532 111.319 352.178 111.319 351.758C111.319 351.318 111.403 350.935 111.569 350.608C111.743 350.282 111.973 350.012 112.259 349.798C112.546 349.592 112.873 349.435 113.239 349.328C113.606 349.222 113.979 349.168 114.359 349.168C114.619 349.168 114.866 349.185 115.099 349.218C115.326 349.258 115.546 349.302 115.759 349.348C115.933 349.388 116.099 349.422 116.259 349.448C116.419 349.475 116.573 349.488 116.719 349.488V351.038H116.569C116.549 350.512 116.343 350.158 115.949 349.978C115.563 349.792 115.023 349.698 114.329 349.698C113.929 349.698 113.599 349.765 113.339 349.898C113.086 350.032 112.883 350.198 112.729 350.398C112.583 350.592 112.479 350.802 112.419 351.028C112.366 351.255 112.339 351.452 112.339 351.618C112.339 351.905 112.403 352.148 112.529 352.348C112.656 352.548 112.823 352.725 113.029 352.878C113.243 353.025 113.486 353.158 113.759 353.278C114.039 353.398 114.329 353.515 114.629 353.628C114.969 353.755 115.316 353.895 115.669 354.048C116.023 354.202 116.336 354.388 116.609 354.608C116.883 354.828 117.109 355.098 117.289 355.418C117.463 355.738 117.549 356.132 117.549 356.598Z" fill="white"/>
<path d="M122.359 349.468V349.318H124.509V349.468H124.439C124.366 349.468 124.299 349.495 124.239 349.548C124.179 349.608 124.129 349.675 124.089 349.748C124.049 349.822 124.016 349.908 123.989 350.008C123.963 350.102 123.949 350.182 123.949 350.248V358.278C123.949 358.358 123.959 358.448 123.979 358.548C123.999 358.642 124.033 358.728 124.079 358.808C124.126 358.888 124.176 358.958 124.229 359.018C124.283 359.078 124.353 359.108 124.439 359.108H124.509V359.258H122.359V359.108H122.429C122.509 359.108 122.579 359.082 122.639 359.028C122.699 358.975 122.753 358.905 122.799 358.818C122.846 358.732 122.879 358.642 122.899 358.548C122.919 358.448 122.929 358.358 122.929 358.278V350.248C122.929 350.182 122.919 350.102 122.899 350.008C122.879 349.922 122.846 349.838 122.799 349.758C122.753 349.678 122.699 349.608 122.639 349.548C122.579 349.495 122.509 349.468 122.429 349.468H122.359Z" fill="white"/>
<path d="M134.719 349.708C133.979 349.708 133.336 349.842 132.789 350.108C132.242 350.375 131.786 350.722 131.419 351.148C131.059 351.575 130.792 352.055 130.619 352.588C130.439 353.122 130.349 353.648 130.349 354.168C130.349 354.762 130.466 355.342 130.699 355.908C130.932 356.475 131.252 356.978 131.659 357.418C132.066 357.852 132.539 358.202 133.079 358.468C133.619 358.735 134.206 358.868 134.839 358.868C135.019 358.868 135.232 358.848 135.479 358.808C135.726 358.768 135.969 358.692 136.209 358.578C136.456 358.458 136.679 358.295 136.879 358.088C137.086 357.875 137.246 357.598 137.359 357.258H137.509V358.928C137.356 358.928 137.199 358.948 137.039 358.988C136.872 359.028 136.689 359.075 136.489 359.128C136.222 359.195 135.932 359.258 135.619 359.318C135.299 359.378 134.966 359.408 134.619 359.408C133.746 359.408 132.976 359.258 132.309 358.958C131.649 358.658 131.099 358.268 130.659 357.788C130.212 357.302 129.879 356.755 129.659 356.148C129.439 355.542 129.329 354.928 129.329 354.308C129.329 353.682 129.439 353.062 129.659 352.448C129.879 351.835 130.216 351.285 130.669 350.798C131.122 350.312 131.689 349.918 132.369 349.618C133.056 349.318 133.859 349.168 134.779 349.168C135.112 349.168 135.412 349.198 135.679 349.258C135.946 349.318 136.186 349.378 136.399 349.438C136.546 349.492 136.682 349.528 136.809 349.548C136.936 349.575 137.059 349.588 137.179 349.588V351.258H137.029C136.969 350.952 136.859 350.695 136.699 350.488C136.539 350.282 136.349 350.122 136.129 350.008C135.916 349.902 135.686 349.825 135.439 349.778C135.192 349.732 134.952 349.708 134.719 349.708Z" fill="white"/>
<path d="M146.669 349.168C147.449 349.168 148.152 349.305 148.779 349.578C149.399 349.858 149.929 350.232 150.369 350.698C150.802 351.165 151.135 351.708 151.369 352.328C151.609 352.942 151.729 353.585 151.729 354.258C151.729 355.012 151.589 355.705 151.309 356.338C151.035 356.972 150.659 357.515 150.179 357.968C149.692 358.415 149.132 358.768 148.499 359.028C147.859 359.282 147.179 359.408 146.459 359.408C145.685 359.408 144.989 359.268 144.369 358.988C143.749 358.708 143.225 358.338 142.799 357.878C142.372 357.412 142.045 356.878 141.819 356.278C141.585 355.678 141.469 355.052 141.469 354.398C141.469 353.752 141.585 353.115 141.819 352.488C142.045 351.862 142.382 351.302 142.829 350.808C143.275 350.315 143.822 349.918 144.469 349.618C145.109 349.318 145.842 349.168 146.669 349.168ZM146.649 358.888C147.322 358.855 147.912 358.702 148.419 358.428C148.925 358.148 149.352 357.795 149.699 357.368C150.039 356.942 150.292 356.472 150.459 355.958C150.619 355.445 150.699 354.938 150.699 354.438C150.699 353.885 150.599 353.328 150.399 352.768C150.199 352.208 149.912 351.698 149.539 351.238C149.172 350.785 148.729 350.415 148.209 350.128C147.695 349.842 147.115 349.698 146.469 349.698C145.849 349.698 145.292 349.835 144.799 350.108C144.305 350.388 143.885 350.742 143.539 351.168C143.192 351.602 142.929 352.085 142.749 352.618C142.569 353.152 142.479 353.675 142.479 354.188C142.479 354.735 142.585 355.288 142.799 355.848C143.005 356.408 143.295 356.912 143.669 357.358C144.042 357.812 144.482 358.178 144.989 358.458C145.495 358.745 146.049 358.888 146.649 358.888ZM145.419 348.988L145.369 348.898L147.509 347.288L147.899 347.958L145.419 348.988Z" fill="white"/>
<path d="M156.52 359.258V359.108H156.59C156.67 359.108 156.743 359.082 156.81 359.028C156.87 358.975 156.92 358.908 156.96 358.828C157.006 358.742 157.043 358.655 157.07 358.568C157.096 358.475 157.11 358.388 157.11 358.308V350.248C157.11 350.182 157.096 350.102 157.07 350.008C157.043 349.922 157.006 349.838 156.96 349.758C156.92 349.678 156.87 349.608 156.81 349.548C156.743 349.495 156.67 349.468 156.59 349.468H156.52V349.318H158.69V349.468H158.61C158.53 349.468 158.46 349.495 158.4 349.548C158.34 349.608 158.29 349.678 158.25 349.758C158.21 349.838 158.176 349.922 158.15 350.008C158.13 350.102 158.12 350.182 158.12 350.248V358.698H161.41C161.603 358.698 161.77 358.655 161.91 358.568C162.05 358.475 162.17 358.362 162.27 358.228C162.363 358.095 162.433 357.948 162.48 357.788C162.52 357.635 162.54 357.492 162.54 357.358H162.69V359.258H156.52Z" fill="white"/>
<path d="M171.449 349.168C172.229 349.168 172.929 349.305 173.549 349.578C174.176 349.858 174.706 350.232 175.139 350.698C175.579 351.165 175.916 351.708 176.149 352.328C176.389 352.942 176.509 353.585 176.509 354.258C176.509 355.012 176.369 355.705 176.089 356.338C175.816 356.972 175.439 357.515 174.959 357.968C174.472 358.415 173.912 358.768 173.279 359.028C172.639 359.282 171.959 359.408 171.239 359.408C170.466 359.408 169.769 359.268 169.149 358.988C168.529 358.708 168.006 358.338 167.579 357.878C167.152 357.412 166.826 356.878 166.599 356.278C166.366 355.678 166.249 355.052 166.249 354.398C166.249 353.752 166.366 353.115 166.599 352.488C166.826 351.862 167.162 351.302 167.609 350.808C168.056 350.315 168.602 349.918 169.249 349.618C169.889 349.318 170.622 349.168 171.449 349.168ZM171.429 358.888C172.102 358.855 172.692 358.702 173.199 358.428C173.706 358.148 174.129 357.795 174.469 357.368C174.816 356.942 175.069 356.472 175.229 355.958C175.396 355.445 175.479 354.938 175.479 354.438C175.479 353.885 175.379 353.328 175.179 352.768C174.979 352.208 174.692 351.698 174.319 351.238C173.952 350.785 173.509 350.415 172.989 350.128C172.469 349.842 171.889 349.698 171.249 349.698C170.629 349.698 170.072 349.835 169.579 350.108C169.086 350.388 168.666 350.742 168.319 351.168C167.972 351.602 167.709 352.085 167.529 352.618C167.349 353.152 167.259 353.675 167.259 354.188C167.259 354.735 167.362 355.288 167.569 355.848C167.782 356.408 168.076 356.912 168.449 357.358C168.822 357.812 169.262 358.178 169.769 358.458C170.276 358.745 170.829 358.888 171.429 358.888Z" fill="white"/>
<path d="M187.399 354.168V354.018H189.549V354.168H189.479C189.399 354.168 189.329 354.195 189.269 354.248C189.209 354.308 189.155 354.378 189.109 354.458C189.069 354.538 189.039 354.622 189.019 354.708C188.992 354.802 188.979 354.882 188.979 354.948V358.988C188.799 359.062 188.592 359.122 188.359 359.168C188.132 359.222 187.892 359.265 187.639 359.298C187.385 359.332 187.129 359.358 186.869 359.378C186.609 359.398 186.369 359.408 186.149 359.408C185.242 359.408 184.452 359.258 183.779 358.958C183.105 358.658 182.549 358.265 182.109 357.778C181.669 357.292 181.339 356.742 181.119 356.128C180.905 355.515 180.799 354.898 180.799 354.278C180.799 353.652 180.905 353.032 181.119 352.418C181.339 351.805 181.672 351.258 182.119 350.778C182.565 350.298 183.129 349.908 183.809 349.608C184.482 349.315 185.285 349.168 186.219 349.168C186.572 349.168 186.899 349.198 187.199 349.258C187.499 349.318 187.765 349.375 187.999 349.428C188.132 349.455 188.245 349.482 188.339 349.508C188.432 349.535 188.515 349.548 188.589 349.548H188.719V351.138H188.569C188.509 350.832 188.392 350.582 188.219 350.388C188.039 350.195 187.835 350.048 187.609 349.948C187.375 349.848 187.132 349.782 186.879 349.748C186.619 349.715 186.379 349.698 186.159 349.698C185.405 349.698 184.752 349.832 184.199 350.098C183.652 350.365 183.202 350.708 182.849 351.128C182.495 351.548 182.235 352.022 182.069 352.548C181.895 353.075 181.809 353.602 181.809 354.128C181.809 354.708 181.919 355.282 182.139 355.848C182.359 356.415 182.669 356.922 183.069 357.368C183.475 357.815 183.962 358.178 184.529 358.458C185.095 358.732 185.725 358.868 186.419 358.868C186.605 358.868 186.842 358.845 187.129 358.798C187.409 358.752 187.689 358.648 187.969 358.488V354.948C187.969 354.882 187.959 354.802 187.939 354.708C187.919 354.622 187.885 354.538 187.839 354.458C187.792 354.378 187.739 354.308 187.679 354.248C187.619 354.195 187.549 354.168 187.469 354.168H187.399Z" fill="white"/>
<path d="M200.04 359.258V359.108H200.11C200.35 359.108 200.47 358.998 200.47 358.778C200.47 358.698 200.456 358.612 200.43 358.518L199.07 354.858H196.44L195.12 358.458C195.093 358.538 195.08 358.615 195.08 358.688C195.08 358.822 195.116 358.925 195.19 358.998C195.256 359.072 195.33 359.108 195.41 359.108H195.49V359.258H193.81V359.108H193.89C194.023 359.108 194.15 359.032 194.27 358.878C194.396 358.718 194.5 358.535 194.58 358.328L198.03 349.138L201.41 358.238C201.476 358.438 201.573 358.635 201.7 358.828C201.826 359.015 201.99 359.108 202.19 359.108H202.26V359.258H200.04ZM197.75 351.198L196.59 354.348H198.91L197.75 351.198Z" fill="white"/>
<path d="M222.309 357.618L222.959 358.148C223.172 358.328 223.372 358.488 223.559 358.628C223.732 358.748 223.909 358.858 224.089 358.958C224.269 359.058 224.429 359.108 224.569 359.108V359.258H223.729C223.349 359.258 223.012 359.185 222.719 359.038C222.426 358.898 222.149 358.725 221.889 358.518L220.399 357.348C219.859 358.082 219.299 358.605 218.719 358.918C218.139 359.238 217.499 359.398 216.799 359.398C216.346 359.398 215.942 359.328 215.589 359.188C215.229 359.055 214.926 358.875 214.679 358.648C214.432 358.422 214.246 358.158 214.119 357.858C213.986 357.558 213.919 357.248 213.919 356.928C213.919 356.235 214.096 355.645 214.449 355.158C214.802 354.672 215.389 354.232 216.209 353.838C215.729 353.438 215.359 353.042 215.099 352.648C214.839 352.255 214.709 351.848 214.709 351.428C214.709 351.135 214.762 350.858 214.869 350.598C214.982 350.338 215.139 350.112 215.339 349.918C215.539 349.718 215.772 349.562 216.039 349.448C216.306 349.335 216.599 349.278 216.919 349.278C217.299 349.278 217.636 349.342 217.929 349.468C218.222 349.602 218.469 349.772 218.669 349.978C218.869 350.192 219.019 350.435 219.119 350.708C219.219 350.988 219.269 351.268 219.269 351.548C219.269 351.922 219.152 352.308 218.919 352.708C218.692 353.108 218.292 353.475 217.719 353.808C218.179 354.188 218.656 354.585 219.149 354.998C219.642 355.412 220.129 355.808 220.609 356.188C220.809 355.788 220.972 355.385 221.099 354.978C221.226 354.578 221.326 354.212 221.399 353.878C221.472 353.538 221.522 353.245 221.549 352.998C221.576 352.745 221.589 352.562 221.589 352.448C221.589 352.322 221.539 352.205 221.439 352.098C221.339 351.992 221.229 351.938 221.109 351.938V351.788H222.659V351.938C222.559 351.938 222.456 351.985 222.349 352.078C222.242 352.178 222.179 352.298 222.159 352.438C222.099 352.958 222.016 353.465 221.909 353.958C221.816 354.378 221.692 354.822 221.539 355.288C221.392 355.748 221.209 356.148 220.989 356.488C221.189 356.682 221.406 356.872 221.639 357.058C221.866 357.252 222.089 357.438 222.309 357.618ZM215.639 351.378C215.712 351.732 215.909 352.078 216.229 352.418C216.549 352.765 216.896 353.092 217.269 353.398C217.656 353.238 217.956 352.995 218.169 352.668C218.382 352.342 218.489 352.025 218.489 351.718C218.489 351.472 218.449 351.235 218.369 351.008C218.296 350.775 218.186 350.565 218.039 350.378C217.892 350.192 217.709 350.042 217.489 349.928C217.262 349.815 216.996 349.758 216.689 349.758C216.362 349.758 216.099 349.888 215.899 350.148C215.706 350.408 215.609 350.718 215.609 351.078C215.609 351.132 215.609 351.182 215.609 351.228C215.609 351.282 215.619 351.332 215.639 351.378ZM217.239 358.868C217.732 358.868 218.222 358.698 218.709 358.358C219.196 358.018 219.639 357.575 220.039 357.028C219.486 356.568 218.922 356.098 218.349 355.618C217.776 355.145 217.212 354.682 216.659 354.228C216.052 354.522 215.602 354.885 215.309 355.318C215.016 355.745 214.869 356.182 214.869 356.628C214.869 356.895 214.929 357.158 215.049 357.418C215.169 357.685 215.336 357.922 215.549 358.128C215.762 358.342 216.012 358.515 216.299 358.648C216.592 358.788 216.906 358.862 217.239 358.868Z" fill="white"/>
<path d="M238.009 359.108H238.079V359.258H236.409V359.108H236.489C236.556 359.108 236.622 359.078 236.689 359.018C236.756 358.958 236.809 358.888 236.849 358.808C236.889 358.728 236.922 358.642 236.949 358.548C236.969 358.448 236.979 358.358 236.979 358.278V350.248C236.979 350.182 236.972 350.102 236.959 350.008C236.946 349.922 236.919 349.838 236.879 349.758C236.839 349.678 236.782 349.608 236.709 349.548C236.642 349.495 236.559 349.468 236.459 349.468H236.379V349.318H237.899L243.369 357.938V350.248C243.369 350.182 243.356 350.102 243.329 350.008C243.309 349.922 243.276 349.838 243.229 349.758C243.182 349.678 243.129 349.608 243.069 349.548C243.009 349.495 242.939 349.468 242.859 349.468H242.779V349.318H244.469V349.468H244.399C244.312 349.468 244.239 349.495 244.179 349.548C244.119 349.608 244.069 349.678 244.029 349.758C243.982 349.838 243.949 349.922 243.929 350.008C243.909 350.102 243.899 350.182 243.899 350.248V359.258H242.959L237.509 350.618V358.278C237.509 358.358 237.519 358.448 237.539 358.548C237.559 358.642 237.592 358.728 237.639 358.808C237.686 358.888 237.739 358.958 237.799 359.018C237.859 359.078 237.929 359.108 238.009 359.108Z" fill="white"/>
<path d="M249.35 359.258V359.108H249.43C249.51 359.108 249.58 359.082 249.64 359.028C249.7 358.975 249.753 358.908 249.8 358.828C249.84 358.742 249.873 358.655 249.9 358.568C249.926 358.475 249.94 358.388 249.94 358.308V350.248C249.94 350.182 249.926 350.102 249.9 350.008C249.873 349.922 249.84 349.838 249.8 349.758C249.753 349.678 249.7 349.608 249.64 349.548C249.58 349.495 249.51 349.468 249.43 349.468H249.35V349.318H255.15V350.718H255C254.98 350.485 254.89 350.282 254.73 350.108C254.57 349.935 254.32 349.848 253.98 349.848H250.95V353.658H253.45C253.676 353.658 253.87 353.588 254.03 353.448C254.183 353.308 254.26 353.142 254.26 352.948H254.41V354.828H254.26C254.26 354.648 254.186 354.495 254.04 354.368C253.886 354.235 253.69 354.168 253.45 354.168H250.95V358.728H254.25C254.436 358.728 254.6 358.685 254.74 358.598C254.88 358.505 255 358.398 255.1 358.278C255.193 358.152 255.263 358.015 255.31 357.868C255.356 357.722 255.38 357.598 255.38 357.498H255.53V359.258H249.35Z" fill="white"/>
<path d="M260.119 349.468V349.318H262.259V349.468H262.179C262.099 349.468 262.029 349.495 261.969 349.548C261.909 349.608 261.859 349.678 261.819 349.758C261.772 349.838 261.739 349.922 261.719 350.008C261.699 350.102 261.689 350.182 261.689 350.248V356.198C261.689 356.592 261.729 356.955 261.809 357.288C261.889 357.622 262.022 357.908 262.209 358.148C262.402 358.388 262.656 358.575 262.969 358.708C263.276 358.848 263.656 358.918 264.109 358.918C264.616 358.918 265.019 358.835 265.319 358.668C265.619 358.508 265.849 358.302 266.009 358.048C266.169 357.795 266.276 357.505 266.329 357.178C266.376 356.858 266.399 356.542 266.399 356.228V350.248C266.399 350.182 266.389 350.102 266.369 350.008C266.349 349.922 266.316 349.838 266.269 349.758C266.229 349.678 266.179 349.608 266.119 349.548C266.059 349.495 265.992 349.468 265.919 349.468H265.839V349.318H267.489V349.468H267.409C267.329 349.468 267.262 349.495 267.209 349.548C267.149 349.608 267.099 349.678 267.059 349.758C267.012 349.838 266.979 349.922 266.959 350.008C266.939 350.102 266.929 350.182 266.929 350.248V356.188C266.929 356.842 266.849 357.375 266.689 357.788C266.529 358.208 266.309 358.538 266.029 358.778C265.742 359.018 265.412 359.185 265.039 359.278C264.659 359.365 264.259 359.408 263.839 359.408C263.386 359.408 262.966 359.362 262.579 359.268C262.192 359.175 261.859 359.005 261.579 358.758C261.299 358.518 261.079 358.192 260.919 357.778C260.759 357.358 260.679 356.832 260.679 356.198V350.248C260.679 350.182 260.669 350.102 260.649 350.008C260.629 349.922 260.596 349.838 260.549 349.758C260.502 349.678 260.449 349.608 260.389 349.548C260.329 349.495 260.266 349.468 260.199 349.468H260.119Z" fill="white"/>
<path d="M274.429 359.108H274.509V359.258H272.379V359.108H272.459C272.526 359.108 272.589 359.078 272.649 359.018C272.709 358.958 272.762 358.888 272.809 358.808C272.856 358.728 272.889 358.642 272.909 358.548C272.929 358.448 272.939 358.358 272.939 358.278V350.248C272.939 350.182 272.929 350.102 272.909 350.008C272.889 349.922 272.856 349.838 272.809 349.758C272.762 349.678 272.709 349.608 272.649 349.548C272.589 349.495 272.526 349.468 272.459 349.468H272.379V349.318H274.999C276.006 349.318 276.782 349.515 277.329 349.908C277.876 350.302 278.149 350.878 278.149 351.638C278.149 352.018 278.086 352.352 277.959 352.638C277.832 352.925 277.666 353.172 277.459 353.378C277.246 353.585 276.996 353.752 276.709 353.878C276.422 354.005 276.119 354.098 275.799 354.158L276.889 355.808C277.149 356.208 277.412 356.602 277.679 356.988C277.952 357.375 278.219 357.775 278.479 358.188C278.552 358.288 278.632 358.395 278.719 358.508C278.799 358.615 278.889 358.715 278.989 358.808C279.082 358.902 279.182 358.975 279.289 359.028C279.396 359.082 279.502 359.108 279.609 359.108V359.258H278.959C278.559 359.258 278.232 359.162 277.979 358.968C277.719 358.768 277.506 358.538 277.339 358.278C276.886 357.618 276.436 356.945 275.989 356.258C275.542 355.578 275.099 354.908 274.659 354.248C274.546 354.235 274.426 354.222 274.299 354.208C274.172 354.195 274.056 354.178 273.949 354.158V358.278C273.949 358.358 273.959 358.448 273.979 358.548C273.999 358.642 274.032 358.728 274.079 358.808C274.119 358.888 274.169 358.958 274.229 359.018C274.282 359.078 274.349 359.108 274.429 359.108ZM274.169 349.828H273.949V353.658H274.019C274.099 353.665 274.229 353.672 274.409 353.678C274.582 353.685 274.799 353.688 275.059 353.688C275.272 353.688 275.496 353.655 275.729 353.588C275.969 353.522 276.192 353.412 276.399 353.258C276.599 353.105 276.769 352.902 276.909 352.648C277.042 352.395 277.109 352.078 277.109 351.698C277.109 351.318 277.036 351.008 276.889 350.768C276.742 350.522 276.542 350.328 276.289 350.188C276.036 350.048 275.726 349.955 275.359 349.908C274.999 349.855 274.602 349.828 274.169 349.828Z" fill="white"/>
<path d="M289.059 349.168C289.839 349.168 290.543 349.305 291.169 349.578C291.789 349.858 292.316 350.232 292.749 350.698C293.189 351.165 293.526 351.708 293.759 352.328C293.999 352.942 294.119 353.585 294.119 354.258C294.119 355.012 293.979 355.705 293.699 356.338C293.426 356.972 293.049 357.515 292.569 357.968C292.083 358.415 291.523 358.768 290.889 359.028C290.249 359.282 289.569 359.408 288.849 359.408C288.076 359.408 287.379 359.268 286.759 358.988C286.139 358.708 285.616 358.338 285.189 357.878C284.763 357.412 284.436 356.878 284.209 356.278C283.976 355.678 283.859 355.052 283.859 354.398C283.859 353.752 283.976 353.115 284.209 352.488C284.436 351.862 284.773 351.302 285.219 350.808C285.666 350.315 286.213 349.918 286.859 349.618C287.499 349.318 288.233 349.168 289.059 349.168ZM289.039 358.888C289.713 358.855 290.303 358.702 290.809 358.428C291.316 358.148 291.739 357.795 292.079 357.368C292.426 356.942 292.679 356.472 292.839 355.958C293.006 355.445 293.089 354.938 293.089 354.438C293.089 353.885 292.989 353.328 292.789 352.768C292.589 352.208 292.303 351.698 291.929 351.238C291.563 350.785 291.119 350.415 290.599 350.128C290.079 349.842 289.499 349.698 288.859 349.698C288.239 349.698 287.683 349.835 287.189 350.108C286.696 350.388 286.276 350.742 285.929 351.168C285.583 351.602 285.319 352.085 285.139 352.618C284.959 353.152 284.869 353.675 284.869 354.188C284.869 354.735 284.976 355.288 285.189 355.848C285.396 356.408 285.686 356.912 286.059 357.358C286.433 357.812 286.873 358.178 287.379 358.458C287.886 358.745 288.439 358.888 289.039 358.888Z" fill="white"/>
<path d="M298.89 349.468V349.318H301.03C302.143 349.318 302.99 349.532 303.57 349.958C304.15 350.385 304.44 350.992 304.44 351.778C304.44 352.198 304.336 352.575 304.13 352.908C303.93 353.235 303.666 353.512 303.34 353.738C303.013 353.965 302.646 354.138 302.24 354.258C301.833 354.378 301.43 354.438 301.03 354.438H300.46V358.278C300.46 358.358 300.47 358.448 300.49 358.548C300.51 358.642 300.543 358.728 300.59 358.808C300.63 358.888 300.68 358.958 300.74 359.018C300.793 359.078 300.86 359.108 300.94 359.108H301.02V359.258H298.89V359.108H298.97C299.036 359.108 299.1 359.078 299.16 359.018C299.22 358.958 299.27 358.888 299.31 358.808C299.35 358.728 299.38 358.642 299.4 358.548C299.42 358.448 299.43 358.358 299.43 358.278V350.248C299.43 350.108 299.39 349.948 299.31 349.768C299.23 349.588 299.116 349.488 298.97 349.468H298.89ZM300.67 349.848H300.46V353.908H300.91C301.31 353.908 301.67 353.855 301.99 353.748C302.303 353.635 302.566 353.488 302.78 353.308C302.986 353.128 303.146 352.922 303.26 352.688C303.373 352.462 303.43 352.228 303.43 351.988C303.43 351.695 303.38 351.422 303.28 351.168C303.186 350.908 303.033 350.682 302.82 350.488C302.6 350.288 302.316 350.132 301.97 350.018C301.616 349.905 301.183 349.848 300.67 349.848Z" fill="white"/>
<path d="M315.279 356.598C315.279 357.098 315.179 357.525 314.979 357.878C314.779 358.238 314.519 358.528 314.199 358.748C313.886 358.968 313.529 359.128 313.129 359.228C312.736 359.328 312.342 359.378 311.949 359.378C311.549 359.378 311.202 359.338 310.909 359.258C310.622 359.178 310.356 359.105 310.109 359.038C309.949 358.985 309.806 358.942 309.679 358.908C309.546 358.875 309.416 358.858 309.289 358.858V357.138H309.439C309.439 357.518 309.536 357.822 309.729 358.048C309.922 358.275 310.152 358.448 310.419 358.568C310.679 358.688 310.939 358.765 311.199 358.798C311.459 358.838 311.649 358.858 311.769 358.858C312.202 358.858 312.576 358.795 312.889 358.668C313.196 358.542 313.449 358.375 313.649 358.168C313.856 357.962 314.006 357.732 314.099 357.478C314.192 357.232 314.239 356.978 314.239 356.718C314.239 356.385 314.169 356.105 314.029 355.878C313.889 355.652 313.706 355.455 313.479 355.288C313.252 355.115 312.992 354.968 312.699 354.848C312.412 354.728 312.119 354.608 311.819 354.488C311.472 354.355 311.136 354.218 310.809 354.078C310.476 353.938 310.179 353.765 309.919 353.558C309.659 353.352 309.449 353.105 309.289 352.818C309.122 352.532 309.039 352.178 309.039 351.758C309.039 351.318 309.126 350.935 309.299 350.608C309.472 350.282 309.702 350.012 309.989 349.798C310.276 349.592 310.602 349.435 310.969 349.328C311.329 349.222 311.702 349.168 312.089 349.168C312.349 349.168 312.596 349.185 312.829 349.218C313.056 349.258 313.276 349.302 313.489 349.348C313.656 349.388 313.822 349.422 313.989 349.448C314.149 349.475 314.302 349.488 314.449 349.488V351.038H314.299C314.279 350.512 314.072 350.158 313.679 349.978C313.292 349.792 312.752 349.698 312.059 349.698C311.652 349.698 311.322 349.765 311.069 349.898C310.816 350.032 310.612 350.198 310.459 350.398C310.306 350.592 310.202 350.802 310.149 351.028C310.096 351.255 310.069 351.452 310.069 351.618C310.069 351.905 310.132 352.148 310.259 352.348C310.386 352.548 310.552 352.725 310.759 352.878C310.972 353.025 311.216 353.158 311.489 353.278C311.769 353.398 312.059 353.515 312.359 353.628C312.699 353.755 313.046 353.895 313.399 354.048C313.746 354.202 314.059 354.388 314.339 354.608C314.612 354.828 314.839 355.098 315.019 355.418C315.192 355.738 315.279 356.132 315.279 356.598Z" fill="white"/>
<path d="M320.089 349.468V349.318H322.239V349.468H322.159C322.092 349.468 322.029 349.495 321.969 349.548C321.909 349.608 321.859 349.675 321.819 349.748C321.779 349.822 321.746 349.908 321.719 350.008C321.692 350.102 321.679 350.182 321.679 350.248V358.278C321.679 358.358 321.689 358.448 321.709 358.548C321.729 358.642 321.762 358.728 321.809 358.808C321.856 358.888 321.906 358.958 321.959 359.018C322.012 359.078 322.079 359.108 322.159 359.108H322.239V359.258H320.089V359.108H320.159C320.239 359.108 320.309 359.082 320.369 359.028C320.429 358.975 320.482 358.905 320.529 358.818C320.576 358.732 320.609 358.642 320.629 358.548C320.649 358.448 320.659 358.358 320.659 358.278V350.248C320.659 350.182 320.649 350.102 320.629 350.008C320.609 349.922 320.576 349.838 320.529 349.758C320.482 349.678 320.429 349.608 320.369 349.548C320.309 349.495 320.239 349.468 320.159 349.468H320.089Z" fill="white"/>
<path d="M332.45 349.708C331.71 349.708 331.066 349.842 330.52 350.108C329.973 350.375 329.516 350.722 329.15 351.148C328.79 351.575 328.523 352.055 328.35 352.588C328.17 353.122 328.08 353.648 328.08 354.168C328.08 354.762 328.196 355.342 328.43 355.908C328.663 356.475 328.983 356.978 329.39 357.418C329.796 357.852 330.27 358.202 330.81 358.468C331.35 358.735 331.936 358.868 332.57 358.868C332.75 358.868 332.963 358.848 333.21 358.808C333.456 358.768 333.7 358.692 333.94 358.578C334.18 358.458 334.403 358.295 334.61 358.088C334.816 357.875 334.976 357.598 335.09 357.258H335.24V358.928C335.086 358.928 334.926 358.948 334.76 358.988C334.6 359.028 334.416 359.075 334.21 359.128C333.95 359.195 333.663 359.258 333.35 359.318C333.03 359.378 332.696 359.408 332.35 359.408C331.476 359.408 330.706 359.258 330.04 358.958C329.38 358.658 328.83 358.268 328.39 357.788C327.943 357.302 327.61 356.755 327.39 356.148C327.17 355.542 327.06 354.928 327.06 354.308C327.06 353.682 327.17 353.062 327.39 352.448C327.61 351.835 327.946 351.285 328.4 350.798C328.853 350.312 329.42 349.918 330.1 349.618C330.786 349.318 331.59 349.168 332.51 349.168C332.843 349.168 333.143 349.198 333.41 349.258C333.676 349.318 333.913 349.378 334.12 349.438C334.273 349.492 334.413 349.528 334.54 349.548C334.666 349.575 334.79 349.588 334.91 349.588V351.258H334.76C334.7 350.952 334.59 350.695 334.43 350.488C334.263 350.282 334.073 350.122 333.86 350.008C333.646 349.902 333.416 349.825 333.17 349.778C332.923 349.732 332.683 349.708 332.45 349.708Z" fill="white"/>
<path d="M344.399 349.168C345.179 349.168 345.883 349.305 346.509 349.578C347.129 349.858 347.656 350.232 348.089 350.698C348.529 351.165 348.866 351.708 349.099 352.328C349.339 352.942 349.459 353.585 349.459 354.258C349.459 355.012 349.319 355.705 349.039 356.338C348.766 356.972 348.389 357.515 347.909 357.968C347.423 358.415 346.863 358.768 346.229 359.028C345.589 359.282 344.909 359.408 344.189 359.408C343.416 359.408 342.719 359.268 342.099 358.988C341.479 358.708 340.956 358.338 340.529 357.878C340.103 357.412 339.776 356.878 339.549 356.278C339.316 355.678 339.199 355.052 339.199 354.398C339.199 353.752 339.316 353.115 339.549 352.488C339.776 351.862 340.113 351.302 340.559 350.808C341.006 350.315 341.553 349.918 342.199 349.618C342.839 349.318 343.573 349.168 344.399 349.168ZM344.379 358.888C345.053 358.855 345.643 358.702 346.149 358.428C346.656 358.148 347.079 357.795 347.419 357.368C347.766 356.942 348.023 356.472 348.189 355.958C348.349 355.445 348.429 354.938 348.429 354.438C348.429 353.885 348.329 353.328 348.129 352.768C347.929 352.208 347.643 351.698 347.269 351.238C346.903 350.785 346.459 350.415 345.939 350.128C345.426 349.842 344.846 349.698 344.199 349.698C343.579 349.698 343.023 349.835 342.529 350.108C342.036 350.388 341.616 350.742 341.269 351.168C340.923 351.602 340.659 352.085 340.479 352.618C340.299 353.152 340.209 353.675 340.209 354.188C340.209 354.735 340.316 355.288 340.529 355.848C340.736 356.408 341.026 356.912 341.399 357.358C341.773 357.812 342.213 358.178 342.719 358.458C343.226 358.745 343.779 358.888 344.379 358.888ZM343.149 348.988L343.099 348.898L345.239 347.288L345.629 347.958L343.149 348.988Z" fill="white"/>
<path d="M354.249 359.258V359.108H354.319C354.399 359.108 354.469 359.082 354.529 359.028C354.589 358.975 354.642 358.908 354.689 358.828C354.736 358.742 354.772 358.655 354.799 358.568C354.826 358.475 354.839 358.388 354.839 358.308V350.248C354.839 350.182 354.826 350.102 354.799 350.008C354.772 349.922 354.736 349.838 354.689 349.758C354.642 349.678 354.589 349.608 354.529 349.548C354.469 349.495 354.399 349.468 354.319 349.468H354.249V349.318H356.419V349.468H356.339C356.259 349.468 356.189 349.495 356.129 349.548C356.069 349.608 356.019 349.678 355.979 349.758C355.939 349.838 355.906 349.922 355.879 350.008C355.852 350.102 355.839 350.182 355.839 350.248V358.698H359.139C359.332 358.698 359.499 358.655 359.639 358.568C359.779 358.475 359.896 358.362 359.989 358.228C360.089 358.095 360.162 357.948 360.209 357.788C360.249 357.635 360.269 357.492 360.269 357.358H360.419V359.258H354.249Z" fill="white"/>
<path d="M369.179 349.168C369.959 349.168 370.659 349.305 371.279 349.578C371.906 349.858 372.436 350.232 372.869 350.698C373.309 351.165 373.646 351.708 373.879 352.328C374.119 352.942 374.239 353.585 374.239 354.258C374.239 355.012 374.099 355.705 373.819 356.338C373.546 356.972 373.166 357.515 372.679 357.968C372.199 358.415 371.643 358.768 371.009 359.028C370.369 359.282 369.686 359.408 368.959 359.408C368.186 359.408 367.493 359.268 366.879 358.988C366.259 358.708 365.736 358.338 365.309 357.878C364.883 357.412 364.553 356.878 364.319 356.278C364.093 355.678 363.979 355.052 363.979 354.398C363.979 353.752 364.093 353.115 364.319 352.488C364.553 351.862 364.893 351.302 365.339 350.808C365.786 350.315 366.333 349.918 366.979 349.618C367.619 349.318 368.353 349.168 369.179 349.168ZM369.159 358.888C369.833 358.855 370.423 358.702 370.929 358.428C371.436 358.148 371.859 357.795 372.199 357.368C372.539 356.942 372.793 356.472 372.959 355.958C373.126 355.445 373.209 354.938 373.209 354.438C373.209 353.885 373.109 353.328 372.909 352.768C372.709 352.208 372.423 351.698 372.049 351.238C371.676 350.785 371.233 350.415 370.719 350.128C370.199 349.842 369.619 349.698 368.979 349.698C368.359 349.698 367.803 349.835 367.309 350.108C366.816 350.388 366.396 350.742 366.049 351.168C365.703 351.602 365.439 352.085 365.259 352.618C365.079 353.152 364.989 353.675 364.989 354.188C364.989 354.735 365.093 355.288 365.299 355.848C365.513 356.408 365.806 356.912 366.179 357.358C366.553 357.812 366.993 358.178 367.499 358.458C368.006 358.745 368.559 358.888 369.159 358.888Z" fill="white"/>
<path d="M385.129 354.168V354.018H387.279V354.168H387.209C387.123 354.168 387.049 354.195 386.989 354.248C386.929 354.308 386.879 354.378 386.839 354.458C386.799 354.538 386.769 354.622 386.749 354.708C386.723 354.802 386.709 354.882 386.709 354.948V358.988C386.529 359.062 386.323 359.122 386.089 359.168C385.856 359.222 385.616 359.265 385.369 359.298C385.116 359.332 384.859 359.358 384.599 359.378C384.339 359.398 384.099 359.408 383.879 359.408C382.973 359.408 382.183 359.258 381.509 358.958C380.836 358.658 380.279 358.265 379.839 357.778C379.399 357.292 379.069 356.742 378.849 356.128C378.636 355.515 378.529 354.898 378.529 354.278C378.529 353.652 378.636 353.032 378.849 352.418C379.069 351.805 379.403 351.258 379.849 350.778C380.296 350.298 380.856 349.908 381.529 349.608C382.209 349.315 383.016 349.168 383.949 349.168C384.303 349.168 384.629 349.198 384.929 349.258C385.229 349.318 385.496 349.375 385.729 349.428C385.863 349.455 385.976 349.482 386.069 349.508C386.163 349.535 386.246 349.548 386.319 349.548H386.449V351.138H386.299C386.239 350.832 386.123 350.582 385.949 350.388C385.769 350.195 385.566 350.048 385.339 349.948C385.106 349.848 384.863 349.782 384.609 349.748C384.349 349.715 384.109 349.698 383.889 349.698C383.136 349.698 382.483 349.832 381.929 350.098C381.376 350.365 380.926 350.708 380.579 351.128C380.226 351.548 379.963 352.022 379.789 352.548C379.623 353.075 379.539 353.602 379.539 354.128C379.539 354.708 379.649 355.282 379.869 355.848C380.089 356.415 380.399 356.922 380.799 357.368C381.206 357.815 381.693 358.178 382.259 358.458C382.826 358.732 383.456 358.868 384.149 358.868C384.336 358.868 384.573 358.845 384.859 358.798C385.139 358.752 385.419 358.648 385.699 358.488V354.948C385.699 354.882 385.689 354.802 385.669 354.708C385.649 354.622 385.616 354.538 385.569 354.458C385.523 354.378 385.469 354.308 385.409 354.248C385.349 354.195 385.279 354.168 385.199 354.168H385.129Z" fill="white"/>
<path d="M397.759 359.258V359.108H397.839C398.079 359.108 398.199 358.998 398.199 358.778C398.199 358.698 398.186 358.612 398.159 358.518L396.799 354.858H394.159L392.849 358.458C392.822 358.538 392.809 358.615 392.809 358.688C392.809 358.822 392.842 358.925 392.909 358.998C392.982 359.072 393.059 359.108 393.139 359.108H393.219V359.258H391.539V359.108H391.619C391.746 359.108 391.872 359.032 391.999 358.878C392.126 358.718 392.229 358.535 392.309 358.328L395.759 349.138L399.139 358.238C399.206 358.438 399.302 358.635 399.429 358.828C399.556 359.015 399.719 359.108 399.919 359.108H399.989V359.258H397.759ZM395.469 351.198L394.309 354.348H396.629L395.469 351.198Z" fill="white"/>
</g>
<defs>
<clipPath id="clip0_104_117">
<rect width="500" height="500" fill="white"/>
</clipPath>
</defs>
</svg>
