<svg width="280" height="155" viewBox="0 0 280 155" fill="none" xmlns="http://www.w3.org/2000/svg">
<g clip-path="url(#clip0_104_117)">
<path d="M195.738 107.061V106.181H196.178C196.584 106.181 196.964 106.008 197.318 105.661C197.671 105.308 197.981 104.894 198.248 104.421C198.508 103.954 198.698 103.441 198.818 102.881C198.931 102.328 198.988 101.814 198.988 101.341V55.061L176.288 108.031L154.728 57.781V101.341C154.728 101.814 154.788 102.328 154.908 102.881C155.021 103.441 155.211 103.954 155.478 104.421C155.738 104.894 156.044 105.308 156.398 105.661C156.751 106.008 157.161 106.181 157.628 106.181H158.068V107.061H148.478V106.181H148.918C149.331 106.181 149.714 106.008 150.068 105.661C150.414 105.308 150.708 104.894 150.948 104.421C151.181 103.954 151.354 103.441 151.468 102.881C151.588 102.328 151.648 101.814 151.648 101.341V54.441C151.648 54.028 151.588 53.558 151.468 53.031C151.354 52.504 151.181 52.008 150.948 51.541C150.708 51.068 150.414 50.671 150.068 50.351C149.714 50.024 149.331 49.861 148.918 49.861H148.478V48.981H157.458L177.868 97.121L198.288 48.981H208.228V49.861H207.788C207.321 49.861 206.911 50.024 206.558 50.351C206.204 50.671 205.898 51.068 205.638 51.541C205.371 52.008 205.181 52.504 205.068 53.031C204.948 53.558 204.888 54.028 204.888 54.441V101.341C204.888 101.814 204.948 102.328 205.068 102.881C205.181 103.441 205.371 103.954 205.638 104.421C205.898 104.894 206.204 105.308 206.558 105.661C206.911 106.008 207.321 106.181 207.788 106.181H208.228V107.061H195.738Z" fill="white"/>
<path d="M255.837 107.061V106.181H256.277C257.684 106.181 258.387 105.538 258.387 104.251C258.387 103.778 258.3 103.278 258.127 102.751L250.207 81.371H234.807L227.147 102.401C226.974 102.868 226.887 103.308 226.887 103.721C226.887 104.481 227.094 105.081 227.507 105.521C227.914 105.961 228.354 106.181 228.827 106.181H229.267V107.061H219.497V106.181H219.937C220.697 106.181 221.444 105.728 222.177 104.821C222.91 103.914 223.514 102.844 223.987 101.611L244.137 47.931L263.847 101.081C264.26 102.254 264.834 103.398 265.567 104.511C266.3 105.624 267.254 106.181 268.427 106.181H268.867V107.061H255.837ZM242.467 59.981L235.687 78.381H249.237L242.467 59.981Z" fill="white"/>
<path d="M90.8946 66.806C90.5306 67.335 90.0736 67.742 89.5296 68C88.8476 68.325 88.1146 68.486 87.3786 68.486C86.7676 68.486 86.1496 68.375 85.5526 68.15C83.9876 67.564 82.6756 66.27 81.9506 64.605C81.6366 63.883 81.9686 63.04 82.6906 62.725C83.4126 62.407 84.2556 62.74 84.5696 63.465C84.9846 64.412 85.7246 65.166 86.5536 65.473C86.9716 65.63 87.6106 65.745 88.3006 65.416C88.4756 65.33 88.7296 65.005 88.8616 64.355C89.2976 62.25 88.2866 58.308 84.1336 53.555C80.5536 49.457 76.9156 49.285 74.7386 49.7C75.8146 50.833 76.4256 51.683 76.5046 51.794C76.9546 52.441 76.7976 53.33 76.1546 53.781C75.9036 53.956 75.6186 54.038 75.3356 54.038C74.8856 54.038 74.4426 53.827 74.1636 53.431C74.1066 53.352 68.4856 45.505 59.5986 45.505C57.0966 45.505 53.5556 45.876 49.7826 47.366C50.9156 48.085 51.7406 48.967 52.1766 50C52.7846 51.433 52.5836 52.887 51.6116 54.095C50.0116 56.089 46.3806 57.261 42.5996 57.847C42.2176 58.433 41.5596 59.816 41.9776 62.018C42.1246 62.793 41.6136 63.54 40.8416 63.686C40.7526 63.704 40.6626 63.711 40.5736 63.711C39.9016 63.711 39.3016 63.233 39.1726 62.546C38.8366 60.767 39.0116 59.327 39.3476 58.208C36.5926 58.405 34.0526 58.315 32.4976 58.03C31.7226 57.887 31.2076 57.14 31.3546 56.364C31.4976 55.589 32.2406 55.074 33.0196 55.221C37.5036 56.054 47.2846 54.924 49.3866 52.305C49.6966 51.915 49.7436 51.583 49.5436 51.115C49.0146 49.864 46.9996 48.857 44.1546 48.417C38.8016 47.588 31.0936 48.964 27.9806 52.616C24.4966 56.704 26.8766 63.479 26.9016 63.543C27.1696 64.286 26.7836 65.105 26.0436 65.373C25.8836 65.43 25.7186 65.459 25.5586 65.459C24.9756 65.459 24.4286 65.101 24.2146 64.519C24.1606 64.372 23.5996 62.782 23.3426 60.591C21.6846 60.738 19.0686 61.285 17.1066 63.204C15.4706 64.801 14.6416 67.052 14.6416 69.893C14.6416 80.267 22.6596 85.427 28.0776 85.645L28.3066 85.656C29.8436 85.717 32.8516 85.838 35.1816 84.48C34.5886 82.436 34.3066 80.26 34.3066 78.123C34.3066 72.895 37.4656 69.132 40.4206 67.356C42.9646 65.826 45.5766 65.498 47.4136 66.47C48.8256 67.22 49.6006 68.496 49.6006 70.061C49.6006 72.952 46.9706 76.079 44.4296 77.429C43.7326 77.797 42.8686 77.537 42.4966 76.836C42.1246 76.139 42.3896 75.275 43.0896 74.903C45.0016 73.888 46.7456 71.58 46.7456 70.057C46.7456 69.553 46.5526 69.243 46.0736 68.992C45.3266 68.596 43.7436 68.692 41.8966 69.804C39.6096 71.176 37.1686 74.085 37.1686 78.119C37.1686 81.357 38.0086 91.912 48.8036 91.912C55.3076 91.912 59.3806 85.687 62.0796 81.564C62.9726 80.199 63.6806 79.12 64.3526 78.444C64.9276 77.866 65.5636 77.315 66.2036 76.765C68.2406 75.003 70.0016 73.481 70.0016 71.022C70.0016 68.232 68.0476 67.524 67.8256 67.453C67.0826 67.213 66.6576 66.416 66.8856 65.67C67.1146 64.923 67.8866 64.494 68.6406 64.712C70.0986 65.133 72.8606 66.999 72.8606 71.022C72.8606 73.099 72.0786 74.689 71.0096 76.029C76.0486 75.754 79.0676 79.206 79.1076 79.252C79.6146 79.856 79.5396 80.757 78.9356 81.268C78.6676 81.493 78.3386 81.603 78.0136 81.603C77.6096 81.603 77.2066 81.432 76.9236 81.103C76.7456 80.896 72.8176 76.54 66.2746 80.578C65.8136 81.078 65.1916 82.021 64.4666 83.129C61.8616 87.11 57.6416 93.532 50.7796 94.6C50.8266 94.843 50.9126 95.107 51.1156 95.372C51.6516 96.079 53.2956 97.259 58.2346 97.155C68.0896 97.026 72.7066 106.267 73.9646 109.394H77.8806C76.6126 106.814 74.9076 102.508 75.6976 99.275C76.6126 95.53 79.0846 95.44 81.4826 95.355C82.8116 95.304 84.3196 95.251 86.1676 94.74C88.8116 94.004 89.2546 91.817 89.2156 90.28C88.0896 90.595 86.9466 90.738 85.8426 90.755C83.4476 90.798 81.2256 90.105 79.0746 89.44C74.4146 88.008 71.0486 86.971 67.6466 93.396C67.3896 93.882 66.8956 94.157 66.3816 94.157C66.1566 94.157 65.9276 94.104 65.7136 93.993C65.0166 93.625 64.7486 92.757 65.1196 92.06C69.6266 83.544 75.0936 85.227 79.9176 86.71C81.8586 87.307 83.8666 87.925 85.8036 87.897C86.6076 87.886 88.0186 87.861 89.4766 87.203C89.6266 87.082 89.8016 86.982 90.0026 86.928H90.0096C92.3646 85.61 94.6866 82.458 94.6866 74.835C94.6866 71.83 93.0186 68.46 90.8956 66.799L90.8946 66.806ZM34.9886 70.051C34.7176 70.791 33.8916 71.169 33.1516 70.898C30.2436 69.826 29.5496 70.633 27.7096 72.799C27.4376 73.12 27.1376 73.46 26.8306 73.803C26.5946 74.625 26.3516 76.144 26.7836 76.919C26.8876 77.105 27.0556 77.309 27.5126 77.412C28.2846 77.587 28.7636 78.352 28.5926 79.12C28.4426 79.785 27.8526 80.235 27.1986 80.235C27.0946 80.235 26.9876 80.225 26.8806 80.199C25.7226 79.939 24.8256 79.281 24.2826 78.306C23.8356 77.502 23.6896 76.576 23.6896 75.704C23.3826 75.758 23.0716 75.79 22.7676 75.79C20.9916 75.79 19.3156 74.954 18.3726 74.225C17.7466 73.742 17.6286 72.845 18.1116 72.22C18.5936 71.595 19.4876 71.477 20.1126 71.956C20.3946 72.17 22.8496 73.928 24.4976 72.127C24.8726 71.72 25.2116 71.319 25.5296 70.944C27.4956 68.636 29.3496 66.449 34.1386 68.214C34.8776 68.486 35.2566 69.308 34.9856 70.051H34.9886ZM49.8896 65.709C51.6476 64.162 52.1696 61.385 52.1736 61.357C52.3126 60.581 53.0596 60.06 53.8316 60.202C54.6066 60.342 55.1246 61.078 54.9896 61.853C54.9606 62.007 54.3026 65.631 51.7806 67.853C51.5086 68.093 51.1726 68.211 50.8366 68.211C50.4406 68.211 50.0476 68.046 49.7646 67.725C49.2436 67.131 49.3006 66.231 49.8936 65.709H49.8896ZM63.8046 74.335C63.1186 74.721 62.2506 74.486 61.8606 73.803C61.6606 73.467 61.0716 72.752 60.5106 72.699C59.9746 72.642 59.3486 73.253 59.0306 73.617C58.0486 74.736 57.1266 76.637 56.2366 78.474C54.4786 82.104 52.6596 85.86 49.3756 86.035C49.1896 86.046 49.0076 86.049 48.8326 86.049C47.1026 86.049 45.8166 85.581 45.0016 84.656C44.4616 84.041 43.8866 82.94 44.2086 81.161C44.3506 80.385 45.0906 79.878 45.8696 80.01C46.6456 80.153 47.1596 80.896 47.0206 81.672C46.9666 81.965 46.9136 82.497 47.1456 82.765C47.4206 83.076 48.1996 83.233 49.2256 83.18C50.8226 83.094 52.3336 79.978 53.6636 77.23C54.6356 75.222 55.6436 73.142 56.8826 71.734C57.1256 71.455 57.3686 71.23 57.6046 71.023C58.1266 69.14 57.2656 68.55 56.9686 68.418C56.2646 68.1 55.9186 67.267 56.2186 66.552C56.5186 65.838 57.3116 65.48 58.0336 65.763C59.0736 66.163 60.6026 67.464 60.6386 69.851C60.6956 69.854 60.7566 69.854 60.8106 69.858C62.9756 70.08 64.2086 72.152 64.3446 72.388C64.7336 73.074 64.4946 73.946 63.8046 74.335ZM64.3406 58.227C61.2036 55.915 56.3546 58.323 56.3076 58.348C55.6036 58.706 54.7466 58.423 54.3856 57.723C54.0276 57.022 54.3036 56.161 55.0076 55.804C55.1966 55.707 58.5346 54.046 62.0966 54.435C62.0366 51.584 63.8446 50.379 63.9406 50.319C64.6056 49.89 65.4876 50.086 65.9166 50.751C66.3346 51.401 66.1566 52.266 65.5236 52.702C65.4456 52.766 64.6806 53.467 65.0876 55.336C65.4096 55.507 65.7276 55.7 66.0386 55.929C69.7296 58.645 72.2886 59.313 75.4866 58.38C76.2436 58.155 77.0376 58.595 77.2586 59.352C77.4806 60.11 77.0446 60.903 76.2866 61.125C75.1216 61.464 74.0066 61.639 72.9096 61.639C70.1546 61.639 67.4896 60.549 64.3446 58.23L64.3406 58.227ZM91.1386 74.207C90.4306 75.53 88.6156 77.477 85.9956 77.477C85.7746 77.477 85.5456 77.459 85.3096 77.431C85.3316 77.877 85.4096 78.288 85.6496 78.621C86.1786 79.36 87.4826 79.911 89.4156 80.214C90.1946 80.336 90.7276 81.068 90.6056 81.851C90.4946 82.555 89.8876 83.059 89.1976 83.059C89.1226 83.059 89.0476 83.052 88.9726 83.041C86.1886 82.601 84.3416 81.701 83.3306 80.289C82.0796 78.542 82.4336 76.48 82.6946 74.976C82.8046 74.332 82.9726 73.364 82.8196 73.1C81.8366 71.413 77.9806 73.117 77.9456 73.135C77.2336 73.468 76.3796 73.164 76.0436 72.449C75.7086 71.735 76.0156 70.888 76.7266 70.548C79.0316 69.462 83.4306 68.469 85.2886 71.663C85.8106 72.56 85.7886 73.564 85.6526 74.572C87.5146 74.786 88.5016 73.093 88.6226 72.867C88.9946 72.171 89.8586 71.906 90.5556 72.278C91.2526 72.649 91.5136 73.514 91.1456 74.211L91.1386 74.207Z" fill="white"/>
<path d="M133.167 145.433V9.62801C133.167 8.65101 132.516 8 131.539 8C130.562 8 129.91 8.65101 129.91 9.62801V145.27C129.91 146.247 130.562 146.899 131.539 146.899C132.516 146.899 133.167 146.247 133.167 145.433Z" fill="white"/>
</g>
<defs>
<clipPath id="clip0_104_117">
<rect width="280" height="155" fill="white"/>
</clipPath>
</defs>
</svg>
