<?xml version="1.0" encoding="UTF-8" standalone="no" ?>
<!DOCTYPE svg PUBLIC "-//W3C//DTD SVG 1.1//EN" "http://www.w3.org/Graphics/SVG/1.1/DTD/svg11.dtd">
<svg xmlns="http://www.w3.org/2000/svg" xmlns:xlink="http://www.w3.org/1999/xlink" version="1.1" width="500" height="500" viewBox="0 0 500 500" xml:space="preserve">
<desc>Created with Fabric.js 3.6.3</desc>
<defs>
</defs>
<g transform="matrix(1 0 0 1 326.3076516752415 213.42109534038715)" style=""  ><path fill="#476C5E" opacity="1" d="M-11.57 27.64L-11.57 26.76L-11.13 26.76Q-10.52 26.76-9.99 26.24Q-9.46 25.71-9.06 25.00Q-8.67 24.30-8.49 23.46Q-8.32 22.63-8.32 21.92L-8.32 21.92L-8.32-24.36L-31.02 28.61L-52.58-21.64L-52.58 21.92Q-52.58 22.63-52.40 23.46Q-52.23 24.30-51.83 25.00Q-51.44 25.71-50.91 26.24Q-50.38 26.76-49.68 26.76L-49.68 26.76L-49.24 26.76L-49.24 27.64L-58.83 27.64L-58.83 26.76L-58.39 26.76Q-57.77 26.76-57.24 26.24Q-56.72 25.71-56.36 25.00Q-56.01 24.30-55.84 23.46Q-55.66 22.63-55.66 21.92L-55.66 21.92L-55.66-24.98Q-55.66-25.60-55.84-26.39Q-56.01-27.18-56.36-27.88Q-56.72-28.59-57.24-29.07Q-57.77-29.56-58.39-29.56L-58.39-29.56L-58.83-29.56L-58.83-30.44L-49.85-30.44L-29.44 17.70L-9.02-30.44L0.92-30.44L0.92-29.56L0.48-29.56Q-0.22-29.56-0.75-29.07Q-1.28-28.59-1.67-27.88Q-2.07-27.18-2.24-26.39Q-2.42-25.60-2.42-24.98L-2.42-24.98L-2.42 21.92Q-2.42 22.63-2.24 23.46Q-2.07 24.30-1.67 25.00Q-1.28 25.71-0.75 26.24Q-0.22 26.76 0.48 26.76L0.48 26.76L0.92 26.76L0.92 27.64L-11.57 27.64Z"/><path fill="#476C5E" opacity="1" d="M48.53 27.64L48.53 26.76L48.97 26.76Q51.08 26.76 51.08 24.83L51.08 24.83Q51.08 24.12 50.82 23.33L50.82 23.33L42.90 1.95L27.50 1.95L19.84 22.98Q19.58 23.68 19.58 24.30L19.58 24.30Q19.58 25.44 20.20 26.10Q20.81 26.76 21.52 26.76L21.52 26.76L21.96 26.76L21.96 27.64L12.19 27.64L12.19 26.76L12.63 26.76Q13.77 26.76 14.87 25.40Q15.97 24.04 16.68 22.19L16.68 22.19L36.83-31.49L56.54 21.66Q57.16 23.42 58.26 25.09Q59.36 26.76 61.12 26.76L61.12 26.76L61.56 26.76L61.56 27.64L48.53 27.64ZM35.16-19.44L28.38-1.04L41.93-1.04L35.16-19.44Z"/></g><g transform="matrix(1 0 0 1 259.2162162161543 319.74950580732923)" style=""  ><path fill="#476C5E" opacity="1" d="M-173.17 8.80L-173.17 8.52L-173.03 8.52Q-172.83 8.52-172.66 8.35Q-172.49 8.18-172.37 7.96Q-172.24 7.73-172.19 7.47Q-172.13 7.20-172.13 6.98L-172.13 6.98L-172.13-7.75L-179.35 9.10L-186.21-6.88L-186.21 6.98Q-186.21 7.20-186.16 7.47Q-186.10 7.73-185.98 7.96Q-185.85 8.18-185.68 8.35Q-185.51 8.52-185.29 8.52L-185.29 8.52L-185.15 8.52L-185.15 8.80L-188.20 8.80L-188.20 8.52L-188.06 8.52Q-187.87 8.52-187.70 8.35Q-187.53 8.18-187.42 7.96Q-187.31 7.73-187.25 7.47Q-187.19 7.20-187.19 6.98L-187.19 6.98L-187.19-7.95Q-187.19-8.14-187.25-8.40Q-187.31-8.65-187.42-8.87Q-187.53-9.10-187.70-9.25Q-187.87-9.40-188.06-9.40L-188.06-9.40L-188.20-9.40L-188.20-9.68L-185.35-9.68L-178.85 5.63L-172.35-9.68L-169.19-9.68L-169.19-9.40L-169.33-9.40Q-169.55-9.40-169.72-9.25Q-169.89-9.10-170.02-8.87Q-170.14-8.65-170.20-8.40Q-170.25-8.14-170.25-7.95L-170.25-7.95L-170.25 6.98Q-170.25 7.20-170.20 7.47Q-170.14 7.73-170.02 7.96Q-169.89 8.18-169.72 8.35Q-169.55 8.52-169.33 8.52L-169.33 8.52L-169.19 8.52L-169.19 8.80L-173.17 8.80Z"/><path fill="#476C5E" opacity="1" d="M-145.08 8.80L-145.08 8.52L-144.94 8.52Q-144.27 8.52-144.27 7.90L-144.27 7.90Q-144.27 7.68-144.35 7.42L-144.35 7.42L-146.87 0.62L-151.77 0.62L-154.21 7.31Q-154.29 7.54-154.29 7.73L-154.29 7.73Q-154.29 8.10-154.10 8.31Q-153.90 8.52-153.68 8.52L-153.68 8.52L-153.54 8.52L-153.54 8.80L-156.65 8.80L-156.65 8.52L-156.51 8.52Q-156.14 8.52-155.79 8.08Q-155.44 7.65-155.22 7.06L-155.22 7.06L-148.81-10.02L-142.53 6.89Q-142.34 7.45-141.99 7.98Q-141.64 8.52-141.08 8.52L-141.08 8.52L-140.94 8.52L-140.94 8.80L-145.08 8.80ZM-149.34-6.18L-151.49-0.33L-147.18-0.33L-149.34-6.18Z"/><path fill="#476C5E" opacity="1" d="M-124.75 8.52L-124.75 8.52L-124.61 8.52L-124.61 8.80L-128.56 8.80L-128.56 8.52L-128.42 8.52Q-128.23 8.52-128.06 8.35Q-127.89 8.18-127.76 7.96Q-127.64 7.73-127.58 7.47Q-127.53 7.20-127.53 6.98L-127.53 6.98L-127.53-7.95Q-127.53-8.14-127.58-8.40Q-127.64-8.65-127.76-8.87Q-127.89-9.10-128.06-9.25Q-128.23-9.40-128.42-9.40L-128.42-9.40L-128.56-9.40L-128.56-9.68L-123.69-9.68Q-120.89-9.68-119.36-8.59Q-117.84-7.50-117.84-5.37L-117.84-5.37Q-117.84-4.31-118.19-3.51Q-118.54-2.71-119.13-2.14Q-119.71-1.56-120.51-1.21Q-121.31-0.86-122.21-0.70L-122.21-0.70L-120.19 2.38Q-119.46 3.50-118.71 4.58Q-117.95 5.66-117.22 6.81L-117.22 6.81Q-117.03 7.09-116.79 7.40Q-116.55 7.70-116.28 7.96Q-116.02 8.21-115.72 8.36Q-115.43 8.52-115.12 8.52L-115.12 8.52L-115.12 8.80L-116.33 8.80Q-117.45 8.80-118.16 8.25Q-118.87 7.70-119.35 6.98L-119.35 6.98Q-120.61 5.13-121.86 3.22Q-123.10 1.32-124.33-0.53L-124.33-0.53Q-124.64-0.56-124.99-0.60Q-125.34-0.64-125.65-0.70L-125.65-0.70L-125.65 6.98Q-125.65 7.20-125.59 7.47Q-125.54 7.73-125.41 7.96Q-125.29 8.18-125.13 8.35Q-124.98 8.52-124.75 8.52ZM-125.23-8.73L-125.65-8.73L-125.65-1.62L-125.51-1.62Q-125.29-1.59-124.80-1.58Q-124.31-1.56-123.58-1.56L-123.58-1.56Q-122.99-1.56-122.33-1.75Q-121.67-1.93-121.10-2.36Q-120.53-2.80-120.15-3.50Q-119.77-4.20-119.77-5.26L-119.77-5.26Q-119.77-6.32-120.18-7.00Q-120.58-7.67-121.30-8.06Q-122.01-8.45-123.02-8.59Q-124.03-8.73-125.23-8.73L-125.23-8.73Z"/><path fill="#476C5E" opacity="1" d="M-102.63-9.40L-102.63-9.68L-98.63-9.68L-98.63-9.40L-98.77-9.40Q-98.97-9.40-99.13-9.25Q-99.30-9.10-99.41-8.89Q-99.53-8.68-99.60-8.41Q-99.67-8.14-99.67-7.95L-99.67-7.95L-99.67 6.98Q-99.67 7.20-99.61 7.47Q-99.55 7.73-99.43 7.96Q-99.30 8.18-99.15 8.35Q-98.99 8.52-98.77 8.52L-98.77 8.52L-98.63 8.52L-98.63 8.80L-102.63 8.80L-102.63 8.52L-102.49 8.52Q-102.27 8.52-102.10 8.36Q-101.93 8.21-101.81 7.97Q-101.68 7.73-101.63 7.47Q-101.57 7.20-101.57 6.98L-101.57 6.98L-101.57-7.95Q-101.57-8.14-101.63-8.40Q-101.68-8.65-101.81-8.87Q-101.93-9.10-102.10-9.25Q-102.27-9.40-102.49-9.40L-102.49-9.40L-102.63-9.40Z"/><path fill="#476C5E" opacity="1" d="M-74.55 8.80L-74.55 8.52L-74.41 8.52Q-73.74 8.52-73.74 7.90L-73.74 7.90Q-73.74 7.68-73.82 7.42L-73.82 7.42L-76.34 0.62L-81.24 0.62L-83.68 7.31Q-83.76 7.54-83.76 7.73L-83.76 7.73Q-83.76 8.10-83.57 8.31Q-83.37 8.52-83.15 8.52L-83.15 8.52L-83.01 8.52L-83.01 8.80L-86.11 8.80L-86.11 8.52L-85.97 8.52Q-85.61 8.52-85.26 8.08Q-84.91 7.65-84.69 7.06L-84.69 7.06L-78.27-10.02L-72.00 6.89Q-71.81 7.45-71.46 7.98Q-71.11 8.52-70.55 8.52L-70.55 8.52L-70.41 8.52L-70.41 8.80L-74.55 8.80ZM-78.81-6.18L-80.96-0.33L-76.65-0.33L-78.81-6.18Z"/><path fill="#476C5E" opacity="1" d=""/><path fill="#476C5E" opacity="1" d="M-29.36 8.80L-29.36 8.52L-29.22 8.52Q-28.55 8.52-28.55 7.90L-28.55 7.90Q-28.55 7.68-28.63 7.42L-28.63 7.42L-31.15 0.62L-36.05 0.62L-38.49 7.31Q-38.57 7.54-38.57 7.73L-38.57 7.73Q-38.57 8.10-38.37 8.31Q-38.18 8.52-37.95 8.52L-37.95 8.52L-37.81 8.52L-37.81 8.80L-40.92 8.80L-40.92 8.52L-40.78 8.52Q-40.42 8.52-40.07 8.08Q-39.72 7.65-39.49 7.06L-39.49 7.06L-33.08-10.02L-26.81 6.89Q-26.61 7.45-26.26 7.98Q-25.91 8.52-25.35 8.52L-25.35 8.52L-25.21 8.52L-25.21 8.80L-29.36 8.80ZM-33.61-6.18L-35.77-0.33L-31.46-0.33L-33.61-6.18Z"/><path fill="#476C5E" opacity="1" d="M-12.87-9.40L-12.87-9.68L-8.89-9.68Q-5.78-9.68-4.17-8.49Q-2.56-7.30-2.56-5.12L-2.56-5.12Q-2.56-3.94-3.12-3.02Q-3.68-2.10-4.59-1.47Q-5.50-0.84-6.64-0.50Q-7.77-0.16-8.89-0.16L-8.89-0.16L-9.95-0.16L-9.95 6.98Q-9.95 7.20-9.90 7.47Q-9.84 7.73-9.72 7.96Q-9.59 8.18-9.44 8.35Q-9.28 8.52-9.06 8.52L-9.06 8.52L-8.92 8.52L-8.92 8.80L-12.87 8.80L-12.87 8.52L-12.73 8.52Q-12.53 8.52-12.36 8.35Q-12.19 8.18-12.08 7.96Q-11.97 7.73-11.91 7.47Q-11.86 7.20-11.86 6.98L-11.86 6.98L-11.86-7.95Q-11.86-8.34-12.08-8.84Q-12.31-9.35-12.73-9.40L-12.73-9.40L-12.87-9.40ZM-9.56-8.70L-9.95-8.70L-9.95-1.14L-9.11-1.14Q-7.99-1.14-7.11-1.45Q-6.23-1.76-5.64-2.26Q-5.05-2.77-4.75-3.41Q-4.44-4.06-4.44-4.73L-4.44-4.73Q-4.44-5.54-4.70-6.25Q-4.97-6.97-5.57-7.51Q-6.17-8.06-7.15-8.38Q-8.13-8.70-9.56-8.70L-9.56-8.70Z"/><path fill="#476C5E" opacity="1" d="M16.98 8.80L16.98 8.52L17.12 8.52Q17.79 8.52 17.79 7.90L17.79 7.90Q17.79 7.68 17.71 7.42L17.71 7.42L15.19 0.62L10.29 0.62L7.85 7.31Q7.77 7.54 7.77 7.73L7.77 7.73Q7.77 8.10 7.97 8.31Q8.16 8.52 8.39 8.52L8.39 8.52L8.53 8.52L8.53 8.80L5.42 8.80L5.42 8.52L5.56 8.52Q5.92 8.52 6.27 8.08Q6.62 7.65 6.85 7.06L6.85 7.06L13.26-10.02L19.53 6.89Q19.73 7.45 20.08 7.98Q20.43 8.52 20.99 8.52L20.99 8.52L21.13 8.52L21.13 8.80L16.98 8.80ZM12.73-6.18L10.57-0.33L14.88-0.33L12.73-6.18Z"/><path fill="#476C5E" opacity="1" d="M37.31 8.52L37.31 8.52L37.45 8.52L37.45 8.80L33.50 8.80L33.50 8.52L33.64 8.52Q33.84 8.52 34.01 8.35Q34.17 8.18 34.30 7.96Q34.43 7.73 34.48 7.47Q34.54 7.20 34.54 6.98L34.54 6.98L34.54-7.95Q34.54-8.14 34.48-8.40Q34.43-8.65 34.30-8.87Q34.17-9.10 34.01-9.25Q33.84-9.40 33.64-9.40L33.64-9.40L33.50-9.40L33.50-9.68L38.37-9.68Q41.17-9.68 42.70-8.59Q44.23-7.50 44.23-5.37L44.23-5.37Q44.23-4.31 43.88-3.51Q43.53-2.71 42.94-2.14Q42.35-1.56 41.55-1.21Q40.75-0.86 39.86-0.70L39.86-0.70L41.87 2.38Q42.60 3.50 43.36 4.58Q44.11 5.66 44.84 6.81L44.84 6.81Q45.04 7.09 45.28 7.40Q45.51 7.70 45.78 7.96Q46.05 8.21 46.34 8.36Q46.63 8.52 46.94 8.52L46.94 8.52L46.94 8.80L45.74 8.80Q44.62 8.80 43.90 8.25Q43.19 7.70 42.71 6.98L42.71 6.98Q41.45 5.13 40.21 3.22Q38.96 1.32 37.73-0.53L37.73-0.53Q37.42-0.56 37.07-0.60Q36.72-0.64 36.41-0.70L36.41-0.70L36.41 6.98Q36.41 7.20 36.47 7.47Q36.53 7.73 36.65 7.96Q36.78 8.18 36.93 8.35Q37.09 8.52 37.31 8.52ZM36.83-8.73L36.41-8.73L36.41-1.62L36.55-1.62Q36.78-1.59 37.27-1.58Q37.76-1.56 38.49-1.56L38.49-1.56Q39.07-1.56 39.73-1.75Q40.39-1.93 40.96-2.36Q41.54-2.80 41.92-3.50Q42.29-4.20 42.29-5.26L42.29-5.26Q42.29-6.32 41.89-7.00Q41.48-7.67 40.77-8.06Q40.05-8.45 39.05-8.59Q38.04-8.73 36.83-8.73L36.83-8.73Z"/><path fill="#476C5E" opacity="1" d="M59.32 8.80L59.32 8.52L59.46 8.52Q59.68 8.52 59.85 8.36Q60.02 8.21 60.14 7.98Q60.27 7.76 60.34 7.51Q60.41 7.26 60.41 7.03L60.41 7.03L60.41-7.95Q60.41-8.14 60.34-8.40Q60.27-8.65 60.14-8.87Q60.02-9.10 59.85-9.25Q59.68-9.40 59.46-9.40L59.46-9.40L59.32-9.40L59.32-9.68L70.10-9.68L70.10-7.08L69.82-7.08Q69.76-7.72 69.31-8.21Q68.87-8.70 67.91-8.70L67.91-8.70L62.29-8.70L62.29-1.62L66.93-1.62Q67.58-1.62 68.01-2.01Q68.45-2.40 68.45-2.94L68.45-2.94L68.73-2.94L68.73 0.56L68.45 0.56Q68.45 0.06 68.03-0.30Q67.61-0.67 66.93-0.67L66.93-0.67L62.29-0.67L62.29 7.82L68.42 7.82Q68.95 7.82 69.34 7.56Q69.73 7.31 70.00 6.96Q70.27 6.61 70.39 6.21Q70.52 5.80 70.52 5.52L70.52 5.52L70.80 5.52L70.80 8.80L59.32 8.80Z"/><path fill="#476C5E" opacity="1" d="M92.53-8.96L92.53-8.96Q90.45-8.96 88.93-8.21Q87.40-7.47 86.39-6.28Q85.39-5.09 84.90-3.61Q84.41-2.12 84.41-0.67L84.41-0.67Q84.41 0.98 85.05 2.57Q85.69 4.15 86.83 5.37Q87.96 6.58 89.47 7.33Q90.99 8.07 92.75 8.07L92.75 8.07Q93.25 8.07 93.94 7.96Q94.63 7.84 95.30 7.52Q95.97 7.20 96.54 6.61Q97.12 6.02 97.43 5.07L97.43 5.07L97.71 5.07L97.71 8.18Q97.29 8.18 96.82 8.29Q96.36 8.40 95.80 8.54L95.80 8.54Q95.07 8.74 94.19 8.91Q93.31 9.08 92.33 9.08L92.33 9.08Q89.89 9.08 88.05 8.24Q86.20 7.40 84.97 6.05Q83.73 4.71 83.12 3.01Q82.50 1.32 82.50-0.42L82.50-0.42Q82.50-2.15 83.12-3.86Q83.73-5.57 84.99-6.93Q86.25-8.28 88.16-9.12Q90.06-9.96 92.64-9.96L92.64-9.96Q93.56-9.96 94.30-9.80Q95.05-9.63 95.63-9.46L95.63-9.46Q96.05-9.32 96.40-9.25Q96.75-9.18 97.09-9.18L97.09-9.18L97.09-6.07L96.81-6.07Q96.64-6.94 96.19-7.51Q95.75-8.09 95.14-8.40Q94.54-8.70 93.86-8.83Q93.17-8.96 92.53-8.96Z"/><path fill="#476C5E" opacity="1" d="M110.92-9.40L110.92-9.68L114.93-9.68L114.93-9.40L114.79-9.40Q114.59-9.40 114.42-9.25Q114.25-9.10 114.14-8.89Q114.03-8.68 113.96-8.41Q113.89-8.14 113.89-7.95L113.89-7.95L113.89 6.98Q113.89 7.20 113.95 7.47Q114.00 7.73 114.13 7.96Q114.25 8.18 114.41 8.35Q114.56 8.52 114.79 8.52L114.79 8.52L114.93 8.52L114.93 8.80L110.92 8.80L110.92 8.52L111.06 8.52Q111.29 8.52 111.45 8.36Q111.62 8.21 111.75 7.97Q111.87 7.73 111.93 7.47Q111.99 7.20 111.99 6.98L111.99 6.98L111.99-7.95Q111.99-8.14 111.93-8.40Q111.87-8.65 111.75-8.87Q111.62-9.10 111.45-9.25Q111.29-9.40 111.06-9.40L111.06-9.40L110.92-9.40Z"/><path fill="#476C5E" opacity="1" d="M128.28 8.80L128.28 8.52L128.42 8.52Q128.62 8.52 128.79 8.35Q128.95 8.18 129.08 7.96Q129.21 7.73 129.26 7.47Q129.32 7.20 129.32 6.98L129.32 6.98L129.32-7.95Q129.32-8.14 129.26-8.40Q129.21-8.65 129.09-8.87Q128.98-9.10 128.81-9.25Q128.65-9.40 128.42-9.40L128.42-9.40L128.28-9.40L128.28-9.68L133.69-9.68Q135.90-9.68 137.66-8.91Q139.43-8.14 140.64-6.84Q141.86-5.54 142.51-3.86Q143.15-2.18 143.15-0.36L143.15-0.36Q143.15 1.35 142.53 2.99Q141.92 4.62 140.69 5.91Q139.45 7.20 137.61 8.00Q135.76 8.80 133.32 8.80L133.32 8.80L128.28 8.80ZM141.25 0.06L141.25 0.06Q141.25-1.73 140.60-3.33Q139.96-4.92 138.80-6.11Q137.63-7.30 136.05-8.00Q134.47-8.70 132.62-8.70L132.62-8.70L131.19-8.70L131.19 7.82L132.68 7.82Q134.19 7.82 135.72 7.35Q137.24 6.89 138.47 5.93Q139.71 4.96 140.48 3.50Q141.25 2.05 141.25 0.06Z"/><path fill="#476C5E" opacity="1" d="M166.95 8.80L166.95 8.52L167.09 8.52Q167.76 8.52 167.76 7.90L167.76 7.90Q167.76 7.68 167.68 7.42L167.68 7.42L165.16 0.62L160.26 0.62L157.82 7.31Q157.74 7.54 157.74 7.73L157.74 7.73Q157.74 8.10 157.93 8.31Q158.13 8.52 158.35 8.52L158.35 8.52L158.49 8.52L158.49 8.80L155.39 8.80L155.39 8.52L155.53 8.52Q155.89 8.52 156.24 8.08Q156.59 7.65 156.81 7.06L156.81 7.06L163.23-10.02L169.50 6.89Q169.69 7.45 170.04 7.98Q170.39 8.52 170.95 8.52L170.95 8.52L171.09 8.52L171.09 8.80L166.95 8.80ZM162.69-6.18L160.54-0.33L164.85-0.33L162.69-6.18Z"/><path fill="#476C5E" opacity="1" d=""/></g><g transform="matrix(0.9148022284928183 0 0 0.9148022284928183 173.66423994425494 211.44938283503427)"  >
<path style="stroke: none; stroke-width: 0; stroke-dasharray: none; stroke-linecap: butt; stroke-dashoffset: 0; stroke-linejoin: miter; stroke-miterlimit: 4; fill: rgb(71,108,94); fill-rule: nonzero; opacity: 1;"  transform=" translate(-49.999821499999996, -49.98942650000001)" d="m 89.605 38.355 c -0.39844 0.57812 -0.89844 1.0234 -1.4922 1.3047 c -0.74609 0.35547 -1.5469 0.53125 -2.3516 0.53125 c -0.66797 0 -1.3438 -0.12109 -1.9961 -0.36719 c -1.7109 -0.64062 -3.1445 -2.0547 -3.9375 -3.875 c -0.34375 -0.78906 0.019531 -1.7109 0.80859 -2.0547 c 0.78906 -0.34766 1.7109 0.015625 2.0547 0.80859 c 0.45312 1.0352 1.2617 1.8594 2.168 2.1953 c 0.45703 0.17187 1.1562 0.29687 1.9102 -0.0625 c 0.19141 -0.09375 0.46875 -0.44922 0.61328 -1.1602 c 0.47656 -2.3008 -0.62891 -6.6094 -5.168 -11.805 c -3.9141 -4.4805 -7.8906 -4.668 -10.27 -4.2148 c 1.1758 1.2383 1.8438 2.168 1.9297 2.2891 c 0.49219 0.70703 0.32031 1.6797 -0.38281 2.1719 c -0.27344 0.19141 -0.58594 0.28125 -0.89453 0.28125 c -0.49219 0 -0.97656 -0.23047 -1.2812 -0.66406 c -0.0625 -0.085937 -6.207 -8.6641 -15.922 -8.6641 c -2.7344 0 -6.6055 0.40625 -10.73 2.0352 c 1.2383 0.78516 2.1406 1.75 2.6172 2.8789 c 0.66406 1.5664 0.44531 3.1562 -0.61719 4.4766 c -1.75 2.1797 -5.7188 3.4609 -9.8516 4.1016 c -0.41797 0.64062 -1.1367 2.1523 -0.67969 4.5586 c 0.16016 0.84766 -0.39844 1.6641 -1.2422 1.8242 c -0.097656 0.019532 -0.19531 0.027344 -0.29297 0.027344 c -0.73438 0 -1.3906 -0.52344 -1.5312 -1.2734 c -0.36719 -1.9453 -0.17578 -3.5195 0.19141 -4.7422 c -3.0117 0.21484 -5.7891 0.11719 -7.4883 -0.19531 c -0.84766 -0.15625 -1.4102 -0.97266 -1.25 -1.8203 c 0.15625 -0.84766 0.96875 -1.4102 1.8203 -1.25 c 4.9023 0.91016 15.594 -0.32422 17.891 -3.1875 c 0.33984 -0.42578 0.39062 -0.78906 0.17188 -1.3008 c -0.57812 -1.3672 -2.7812 -2.4688 -5.8906 -2.9492 c -5.8516 -0.90625 -14.277 0.59766 -17.68 4.5898 c -3.8086 4.4688 -1.207 11.875 -1.1797 11.945 c 0.29297 0.8125 -0.12891 1.707 -0.9375 2 c -0.17578 0.0625 -0.35547 0.09375 -0.53125 0.09375 c -0.63672 0 -1.2344 -0.39062 -1.4688 -1.0273 c -0.058594 -0.16016 -0.67188 -1.8984 -0.95312 -4.293 c -1.8125 0.16016 -4.6719 0.75781 -6.8164 2.8555 c -1.7891 1.7461 -2.6953 4.207 -2.6953 7.3125 c 0 11.34 8.7656 16.98 14.688 17.219 l 0.25 0.011719 c 1.6797 0.066406 4.9688 0.19922 7.5156 -1.2852 c -0.64844 -2.2344 -0.95703 -4.6133 -0.95703 -6.9492 c 0 -5.7148 3.4531 -9.8281 6.6836 -11.77 c 2.7812 -1.6719 5.6367 -2.0312 7.6445 -0.96875 c 1.543 0.82031 2.3906 2.2148 2.3906 3.9258 c 0 3.1602 -2.875 6.5781 -5.6523 8.0547 c -0.76172 0.40234 -1.707 0.11719 -2.1133 -0.64844 c -0.40625 -0.76172 -0.11719 -1.707 0.64844 -2.1133 c 2.0898 -1.1094 3.9961 -3.6328 3.9961 -5.2969 c 0 -0.55078 -0.21094 -0.89062 -0.73438 -1.1641 c -0.81641 -0.43359 -2.5469 -0.32812 -4.5664 0.88672 c -2.5 1.5 -5.168 4.6797 -5.168 9.0898 c 0 3.5391 0.91797 15.078 12.719 15.078 c 7.1094 0 11.562 -6.8047 14.512 -11.312 c 0.97656 -1.4922 1.75 -2.6719 2.4844 -3.4102 c 0.62891 -0.63281 1.3242 -1.2344 2.0234 -1.8359 c 2.2266 -1.9258 4.1523 -3.5898 4.1523 -6.2773 c 0 -3.0508 -2.1367 -3.8242 -2.3789 -3.9023 c -0.8125 -0.26172 -1.2773 -1.1328 -1.0273 -1.9492 c 0.25 -0.81641 1.0938 -1.2852 1.918 -1.0469 c 1.5938 0.46094 4.6133 2.5 4.6133 6.8984 c 0 2.2695 -0.85547 4.0078 -2.0234 5.4727 c 5.5078 -0.30078 8.8086 3.4727 8.8516 3.5234 c 0.55469 0.66016 0.47266 1.6445 -0.1875 2.2031 c -0.29297 0.24609 -0.65234 0.36719 -1.0078 0.36719 c -0.44141 0 -0.88281 -0.1875 -1.1914 -0.54688 c -0.19531 -0.22656 -4.4883 -4.9883 -11.641 -0.57422 c -0.50391 0.54688 -1.1836 1.5781 -1.9766 2.7891 c -2.8477 4.3516 -7.4609 11.371 -14.961 12.539 c 0.050782 0.26562 0.14453 0.55469 0.36719 0.84375 c 0.58594 0.77344 2.3828 2.0625 7.7812 1.9492 c 10.773 -0.14062 15.82 9.9609 17.195 13.379 h 4.2812 c -1.3867 -2.8203 -3.25 -7.5273 -2.3867 -11.062 c 1 -4.0938 3.7031 -4.1914 6.3242 -4.2852 c 1.4531 -0.054688 3.1016 -0.11328 5.1211 -0.67188 c 2.8906 -0.80469 3.375 -3.1953 3.332 -4.875 c -1.2305 0.34375 -2.4805 0.5 -3.6875 0.51953 c -2.6172 0.046875 -5.0469 -0.71094 -7.3984 -1.4375 c -5.0938 -1.5664 -8.7734 -2.6992 -12.492 4.3242 c -0.28125 0.53125 -0.82031 0.83203 -1.3828 0.83203 c -0.24609 0 -0.49609 -0.058594 -0.73047 -0.17969 c -0.76172 -0.40234 -1.0547 -1.3516 -0.64844 -2.1133 c 4.9258 -9.3086 10.902 -7.4688 16.176 -5.8477 c 2.1211 0.65234 4.3164 1.3281 6.4336 1.2969 c 0.87891 -0.011718 2.4219 -0.039062 4.0156 -0.75781 c 0.16406 -0.13281 0.35547 -0.24219 0.57422 -0.30078 h 0.007813 c 2.5742 -1.4414 5.1133 -4.8867 5.1133 -13.219 c 0 -3.2852 -1.8242 -6.9688 -4.1445 -8.7852 z m -61.113 3.5469 c -0.29688 0.80859 -1.1992 1.2227 -2.0078 0.92578 c -3.1797 -1.1719 -3.9375 -0.28906 -5.9492 2.0781 c -0.29688 0.35156 -0.625 0.72266 -0.96094 1.0977 c -0.25781 0.89844 -0.52344 2.5586 -0.050781 3.4062 c 0.11328 0.20312 0.29687 0.42578 0.79687 0.53906 c 0.84375 0.19141 1.3672 1.0273 1.1797 1.8672 c -0.16406 0.72656 -0.80859 1.2188 -1.5234 1.2188 c -0.11328 0 -0.23047 -0.011718 -0.34766 -0.039062 c -1.2656 -0.28516 -2.2461 -1.0039 -2.8398 -2.0703 c -0.48828 -0.87891 -0.64844 -1.8906 -0.64844 -2.8438 c -0.33594 0.058594 -0.67578 0.09375 -1.0078 0.09375 c -1.9414 0 -3.7734 -0.91406 -4.8047 -1.7109 c -0.68359 -0.52734 -0.8125 -1.5078 -0.28516 -2.1914 c 0.52734 -0.68359 1.5039 -0.8125 2.1875 -0.28906 c 0.30859 0.23438 2.9922 2.1562 4.793 0.1875 c 0.41016 -0.44531 0.78125 -0.88281 1.1289 -1.293 c 2.1484 -2.5234 4.1758 -4.9141 9.4102 -2.9844 c 0.80859 0.29688 1.2227 1.1953 0.92578 2.0078 z m 16.289 -4.7461 c 1.9219 -1.6914 2.4922 -4.7266 2.4961 -4.7578 c 0.15234 -0.84766 0.96875 -1.418 1.8125 -1.2617 c 0.84766 0.15234 1.4141 0.95703 1.2656 1.8047 c -0.03125 0.16797 -0.75 4.1289 -3.5078 6.5586 c -0.29688 0.26172 -0.66406 0.39062 -1.0312 0.39062 c -0.43359 0 -0.86328 -0.17969 -1.1719 -0.53125 c -0.57031 -0.64844 -0.50781 -1.6328 0.14062 -2.2031 z m 15.211 9.4297 c -0.75 0.42187 -1.6992 0.16406 -2.125 -0.58203 c -0.21875 -0.36719 -0.86328 -1.1484 -1.4766 -1.207 c -0.58594 -0.0625 -1.2695 0.60547 -1.6172 1.0039 c -1.0742 1.2227 -2.082 3.3008 -3.0547 5.3086 c -1.9219 3.9688 -3.9102 8.0742 -7.5 8.2656 c -0.20312 0.011719 -0.40234 0.015625 -0.59375 0.015625 c -1.8906 0 -3.2969 -0.51172 -4.1875 -1.5234 c -0.58984 -0.67188 -1.2188 -1.875 -0.86719 -3.8203 c 0.15625 -0.84766 0.96484 -1.4023 1.8164 -1.2578 c 0.84766 0.15625 1.4102 0.96875 1.2578 1.8164 c -0.058593 0.32031 -0.11719 0.90234 0.13672 1.1953 c 0.30078 0.33984 1.1523 0.51172 2.2734 0.45312 c 1.7461 -0.09375 3.3984 -3.5 4.8516 -6.5039 c 1.0625 -2.1953 2.1641 -4.4688 3.5195 -6.0078 c 0.26562 -0.30469 0.53125 -0.55078 0.78906 -0.77734 c 0.57031 -2.0586 -0.37109 -2.7031 -0.69531 -2.8477 c -0.76953 -0.34766 -1.1484 -1.2578 -0.82031 -2.0391 s 1.1953 -1.1719 1.9844 -0.86328 c 1.1367 0.4375 2.8086 1.8594 2.8477 4.4688 c 0.0625 0.003906 0.12891 0.003906 0.1875 0.007812 c 2.3672 0.24219 3.7148 2.5078 3.8633 2.7656 c 0.42578 0.75 0.16406 1.7031 -0.58984 2.1289 z m 0.58594 -17.609 c -3.4297 -2.5273 -8.7305 0.10547 -8.7812 0.13281 c -0.76953 0.39062 -1.707 0.082031 -2.1016 -0.68359 c -0.39062 -0.76562 -0.089843 -1.707 0.67969 -2.0977 c 0.20703 -0.10547 3.8555 -1.9219 7.75 -1.4961 c -0.066406 -3.1172 1.9102 -4.4336 2.0156 -4.5 c 0.72656 -0.46875 1.6914 -0.25391 2.1602 0.47266 c 0.45703 0.71094 0.26172 1.6562 -0.42969 2.1328 c -0.085938 0.070312 -0.92188 0.83594 -0.47656 2.8789 c 0.35156 0.1875 0.69922 0.39844 1.0391 0.64844 c 4.0352 2.9688 6.832 3.6992 10.328 2.6797 c 0.82812 -0.24609 1.6953 0.23438 1.9375 1.0625 c 0.24219 0.82812 -0.23438 1.6953 -1.0625 1.9375 c -1.2734 0.37109 -2.4922 0.5625 -3.6914 0.5625 c -3.0117 0 -5.9258 -1.1914 -9.3633 -3.7266 z m 29.293 17.469 c -0.77344 1.4453 -2.7578 3.5742 -5.6211 3.5742 c -0.24219 0 -0.49219 -0.019531 -0.75 -0.050781 c 0.023438 0.48828 0.10938 0.9375 0.37109 1.3008 c 0.57812 0.80859 2.0039 1.4102 4.1172 1.7422 c 0.85156 0.13281 1.4336 0.93359 1.3008 1.7891 c -0.12109 0.76953 -0.78516 1.3203 -1.5391 1.3203 c -0.082031 0 -0.16406 -0.007813 -0.24609 -0.019532 c -3.043 -0.48047 -5.0625 -1.4648 -6.168 -3.0078 c -1.3672 -1.9102 -0.98047 -4.1641 -0.69531 -5.8086 c 0.12109 -0.70312 0.30469 -1.7617 0.13672 -2.0508 c -1.0742 -1.8438 -5.2891 0.019531 -5.3281 0.039063 c -0.77734 0.36328 -1.7109 0.03125 -2.0781 -0.75 c -0.36719 -0.78125 -0.03125 -1.707 0.74609 -2.0781 c 2.5195 -1.1875 7.3281 -2.2734 9.3594 1.2188 c 0.57031 0.98047 0.54688 2.0781 0.39844 3.1797 c 2.0352 0.23438 3.1133 -1.6172 3.2461 -1.8633 c 0.40625 -0.76172 1.3516 -1.0508 2.1133 -0.64453 s 1.0469 1.3516 0.64453 2.1133 z" stroke-linecap="round" />
</g>
<g transform="matrix(0 1.6283559867534396 -1.6283559867534396 0 250.53873071894526 211.4493828350342)"  >
<path style="stroke: none; stroke-width: 0; stroke-dasharray: none; stroke-linecap: butt; stroke-dashoffset: 0; stroke-linejoin: miter; stroke-miterlimit: 4; fill: rgb(71,108,94); fill-rule: nonzero; opacity: 1;"  transform=" translate(-49.95, -50)" d="M 91.7 49 H 8.3 c -0.6 0 -1 0.4 -1 1 s 0.4 1 1 1 h 83.3 c 0.6 0 1 -0.4 1 -1 S 92.2 49 91.7 49 z" stroke-linecap="round" />
</g>
<g transform="matrix(1 0 0 1 250.3595936424021 354.5282005549754)" style=""  ><path fill="#476C5E" opacity="1" d="M-149.20-5.06L-149.20-5.21L-147.06-5.21Q-145.39-5.21-144.52-4.57Q-143.65-3.93-143.65-2.75L-143.65-2.75Q-143.65-2.12-143.95-1.62Q-144.26-1.13-144.75-0.79Q-145.24-0.45-145.85-0.27Q-146.46-0.09-147.06-0.09L-147.06-0.09L-147.63-0.09L-147.63 3.75Q-147.63 3.87-147.60 4.02Q-147.57 4.16-147.50 4.28Q-147.43 4.40-147.35 4.49Q-147.27 4.58-147.15 4.58L-147.15 4.58L-147.07 4.58L-147.07 4.73L-149.20 4.73L-149.20 4.58L-149.12 4.58Q-149.02 4.58-148.93 4.49Q-148.84 4.40-148.78 4.28Q-148.71 4.16-148.68 4.02Q-148.65 3.87-148.65 3.75L-148.65 3.75L-148.65-4.28Q-148.65-4.49-148.78-4.76Q-148.90-5.03-149.12-5.06L-149.12-5.06L-149.20-5.06ZM-147.42-4.68L-147.63-4.68L-147.63-0.62L-147.18-0.62Q-146.58-0.62-146.10-0.78Q-145.63-0.95-145.31-1.22Q-144.99-1.49-144.83-1.84Q-144.66-2.18-144.66-2.54L-144.66-2.54Q-144.66-2.98-144.81-3.36Q-144.95-3.75-145.27-4.04Q-145.60-4.34-146.12-4.51Q-146.65-4.68-147.42-4.68L-147.42-4.68Z"/><path fill="#476C5E" opacity="1" d="M-132.81 2.07L-132.81 2.07Q-132.81 2.82-133.11 3.35Q-133.41 3.89-133.89 4.22Q-134.36 4.55-134.95 4.70Q-135.55 4.85-136.14 4.85L-136.14 4.85Q-136.74 4.85-137.18 4.73Q-137.61 4.61-137.98 4.51L-137.98 4.51Q-138.22 4.43-138.41 4.38Q-138.61 4.33-138.80 4.33L-138.80 4.33L-138.80 2.61L-138.65 2.61Q-138.65 3.18-138.36 3.52Q-138.07 3.86-137.67 4.04Q-137.28 4.22-136.89 4.27Q-136.50 4.33-136.32 4.33L-136.32 4.33Q-135.67 4.33-135.20 4.14Q-134.74 3.95-134.44 3.64Q-134.13 3.33-133.99 2.95Q-133.85 2.58-133.85 2.19L-133.85 2.19Q-133.85 1.69-134.06 1.35Q-134.27 1.01-134.61 0.76Q-134.95 0.50-135.38 0.32Q-135.82 0.14-136.27-0.04L-136.27-0.04Q-136.79-0.24-137.28-0.45Q-137.78-0.66-138.17-0.97Q-138.56-1.28-138.80-1.71Q-139.04-2.14-139.04-2.77L-139.04-2.77Q-139.04-3.43-138.79-3.92Q-138.53-4.41-138.10-4.73Q-137.67-5.04-137.12-5.20Q-136.57-5.36-136.00-5.36L-136.00-5.36Q-135.61-5.36-135.26-5.31Q-134.92-5.25-134.60-5.18L-134.60-5.18Q-134.34-5.12-134.10-5.08Q-133.86-5.04-133.64-5.04L-133.64-5.04L-133.64-3.49L-133.79-3.49Q-133.82-4.28-134.41-4.55Q-134.99-4.83-136.03-4.83L-136.03-4.83Q-136.63-4.83-137.02-4.63Q-137.40-4.43-137.63-4.13Q-137.85-3.84-137.94-3.50Q-138.02-3.16-138.02-2.91L-138.02-2.91Q-138.02-2.48-137.83-2.18Q-137.64-1.88-137.33-1.65Q-137.01-1.43-136.60-1.25Q-136.18-1.07-135.73-0.90L-135.73-0.90Q-135.22-0.71-134.69-0.48Q-134.16-0.25-133.75 0.08Q-133.34 0.41-133.07 0.89Q-132.81 1.37-132.81 2.07Z"/><path fill="#476C5E" opacity="1" d="M-128.00-5.06L-128.00-5.21L-125.85-5.21L-125.85-5.06L-125.92-5.06Q-126.03-5.06-126.12-4.98Q-126.21-4.89-126.27-4.78Q-126.33-4.67-126.37-4.52Q-126.41-4.38-126.41-4.28L-126.41-4.28L-126.41 3.75Q-126.41 3.87-126.38 4.02Q-126.35 4.16-126.28 4.28Q-126.21 4.40-126.13 4.49Q-126.05 4.58-125.92 4.58L-125.92 4.58L-125.85 4.58L-125.85 4.73L-128.00 4.73L-128.00 4.58L-127.93 4.58Q-127.81 4.58-127.72 4.50Q-127.63 4.42-127.56 4.29Q-127.49 4.16-127.46 4.02Q-127.43 3.87-127.43 3.75L-127.43 3.75L-127.43-4.28Q-127.43-4.38-127.46-4.52Q-127.49-4.65-127.56-4.77Q-127.63-4.89-127.72-4.98Q-127.81-5.06-127.93-5.06L-127.93-5.06L-128.00-5.06Z"/><path fill="#476C5E" opacity="1" d="M-115.64-4.82L-115.64-4.82Q-116.75-4.82-117.57-4.42Q-118.39-4.02-118.94-3.38Q-119.48-2.74-119.74-1.94Q-120.01-1.14-120.01-0.36L-120.01-0.36Q-120.01 0.53-119.66 1.38Q-119.31 2.23-118.70 2.89Q-118.09 3.54-117.28 3.94Q-116.47 4.34-115.52 4.34L-115.52 4.34Q-115.25 4.34-114.88 4.28Q-114.51 4.22-114.15 4.05Q-113.78 3.87-113.48 3.56Q-113.17 3.24-113.00 2.73L-113.00 2.73L-112.85 2.73L-112.85 4.40Q-113.08 4.40-113.32 4.46Q-113.57 4.52-113.87 4.60L-113.87 4.60Q-114.27 4.70-114.74 4.79Q-115.22 4.88-115.74 4.88L-115.74 4.88Q-117.05 4.88-118.05 4.43Q-119.04 3.98-119.70 3.26Q-120.37 2.53-120.70 1.62Q-121.03 0.71-121.03-0.22L-121.03-0.22Q-121.03-1.16-120.70-2.08Q-120.37-3.00-119.69-3.73Q-119.01-4.46-117.99-4.91Q-116.96-5.36-115.58-5.36L-115.58-5.36Q-115.08-5.36-114.68-5.27Q-114.28-5.18-113.96-5.09L-113.96-5.09Q-113.74-5.01-113.55-4.98Q-113.36-4.94-113.18-4.94L-113.18-4.94L-113.18-3.27L-113.33-3.27Q-113.42-3.73-113.66-4.04Q-113.90-4.35-114.23-4.52Q-114.55-4.68-114.92-4.75Q-115.29-4.82-115.64-4.82Z"/><path fill="#476C5E" opacity="1" d="M-103.69-5.36L-103.69-5.36Q-102.52-5.36-101.58-4.95Q-100.65-4.53-99.99-3.83Q-99.34-3.13-98.99-2.20Q-98.63-1.28-98.63-0.27L-98.63-0.27Q-98.63 0.86-99.05 1.81Q-99.46 2.76-100.18 3.44Q-100.91 4.11-101.86 4.50Q-102.82 4.88-103.90 4.88L-103.90 4.88Q-105.06 4.88-105.99 4.46Q-106.92 4.04-107.56 3.35Q-108.20 2.65-108.54 1.75Q-108.89 0.85-108.89-0.13L-108.89-0.13Q-108.89-1.10-108.54-2.04Q-108.20-2.98-107.53-3.72Q-106.86-4.46-105.89-4.91Q-104.93-5.36-103.69-5.36ZM-103.71 4.36L-103.71 4.36Q-102.70 4.31-101.94 3.90Q-101.18 3.48-100.66 2.84Q-100.15 2.20-99.90 1.43Q-99.66 0.66-99.66-0.09L-99.66-0.09Q-99.66-0.92-99.96-1.76Q-100.26-2.60-100.82-3.29Q-101.37-3.97-102.15-4.40Q-102.92-4.83-103.89-4.83L-103.89-4.83Q-104.82-4.83-105.56-4.42Q-106.30-4.00-106.82-3.36Q-107.34-2.71-107.61-1.91Q-107.88-1.11-107.88-0.34L-107.88-0.34Q-107.88 0.48-107.56 1.32Q-107.25 2.16-106.69 2.83Q-106.13 3.51-105.37 3.93Q-104.61 4.36-103.71 4.36ZM-104.94-5.54L-104.99-5.63L-102.85-7.24L-102.46-6.57L-104.94-5.54Z"/><path fill="#476C5E" opacity="1" d="M-93.84 4.73L-93.84 4.58L-93.77 4.58Q-93.65 4.58-93.55 4.50Q-93.46 4.42-93.40 4.30Q-93.33 4.17-93.29 4.04Q-93.25 3.90-93.25 3.78L-93.25 3.78L-93.25-4.28Q-93.25-4.38-93.29-4.52Q-93.33-4.65-93.40-4.77Q-93.46-4.89-93.55-4.98Q-93.65-5.06-93.77-5.06L-93.77-5.06L-93.84-5.06L-93.84-5.21L-91.67-5.21L-91.67-5.06L-91.75-5.06Q-91.87-5.06-91.96-4.98Q-92.05-4.89-92.11-4.77Q-92.17-4.65-92.21-4.52Q-92.24-4.38-92.24-4.28L-92.24-4.28L-92.24 4.17L-88.95 4.17Q-88.66 4.17-88.45 4.04Q-88.24 3.90-88.09 3.70Q-87.95 3.50-87.88 3.26Q-87.82 3.03-87.82 2.83L-87.82 2.83L-87.67 2.83L-87.67 4.73L-93.84 4.73Z"/><path fill="#476C5E" opacity="1" d="M-78.91-5.36L-78.91-5.36Q-77.74-5.36-76.81-4.95Q-75.87-4.53-75.22-3.83Q-74.56-3.13-74.21-2.20Q-73.85-1.28-73.85-0.27L-73.85-0.27Q-73.85 0.86-74.27 1.81Q-74.68 2.76-75.40 3.44Q-76.13 4.11-77.08 4.50Q-78.04 4.88-79.12 4.88L-79.12 4.88Q-80.28 4.88-81.21 4.46Q-82.14 4.04-82.78 3.35Q-83.42 2.65-83.76 1.75Q-84.11 0.85-84.11-0.13L-84.11-0.13Q-84.11-1.10-83.76-2.04Q-83.42-2.98-82.75-3.72Q-82.08-4.46-81.11-4.91Q-80.15-5.36-78.91-5.36ZM-78.93 4.36L-78.93 4.36Q-77.92 4.31-77.16 3.90Q-76.40 3.48-75.89 2.84Q-75.37 2.20-75.13 1.43Q-74.88 0.66-74.88-0.09L-74.88-0.09Q-74.88-0.92-75.18-1.76Q-75.48-2.60-76.04-3.29Q-76.59-3.97-77.37-4.40Q-78.15-4.83-79.11-4.83L-79.11-4.83Q-80.04-4.83-80.78-4.42Q-81.52-4.00-82.04-3.36Q-82.56-2.71-82.83-1.91Q-83.10-1.11-83.10-0.34L-83.10-0.34Q-83.10 0.48-82.79 1.32Q-82.47 2.16-81.91 2.83Q-81.35 3.51-80.59 3.93Q-79.83 4.36-78.93 4.36Z"/><path fill="#476C5E" opacity="1" d="M-62.96-0.36L-62.96-0.51L-60.81-0.51L-60.81-0.36L-60.88-0.36Q-61.00-0.36-61.09-0.28Q-61.18-0.19-61.25-0.07Q-61.31 0.05-61.34 0.18Q-61.38 0.32-61.38 0.42L-61.38 0.42L-61.38 4.46Q-61.65 4.57-62.00 4.64Q-62.34 4.72-62.72 4.77Q-63.10 4.82-63.49 4.85Q-63.88 4.88-64.21 4.88L-64.21 4.88Q-65.57 4.88-66.58 4.43Q-67.59 3.98-68.25 3.25Q-68.91 2.52-69.24 1.60Q-69.56 0.68-69.56-0.25L-69.56-0.25Q-69.56-1.19-69.24-2.11Q-68.91-3.03-68.24-3.75Q-67.57-4.47-66.55-4.92Q-65.54-5.36-64.14-5.36L-64.14-5.36Q-63.61-5.36-63.16-5.27Q-62.71-5.18-62.36-5.10L-62.36-5.10Q-62.16-5.06-62.02-5.02Q-61.88-4.98-61.77-4.98L-61.77-4.98L-61.64-4.98L-61.64-3.39L-61.79-3.39Q-61.88-3.85-62.14-4.14Q-62.41-4.43-62.75-4.58Q-63.10-4.73-63.48-4.78Q-63.87-4.83-64.20-4.83L-64.20-4.83Q-65.33-4.83-66.16-4.43Q-66.98-4.03-67.51-3.40Q-68.04-2.77-68.29-1.98Q-68.55-1.19-68.55-0.40L-68.55-0.40Q-68.55 0.47-68.22 1.32Q-67.89 2.17-67.29 2.84Q-66.68 3.51-65.83 3.93Q-64.98 4.34-63.94 4.34L-63.94 4.34Q-63.66 4.34-63.23 4.27Q-62.81 4.20-62.39 3.96L-62.39 3.96L-62.39 0.42Q-62.39 0.32-62.42 0.18Q-62.45 0.05-62.52-0.07Q-62.59-0.19-62.68-0.28Q-62.77-0.36-62.89-0.36L-62.89-0.36L-62.96-0.36Z"/><path fill="#476C5E" opacity="1" d="M-50.32 4.73L-50.32 4.58L-50.25 4.58Q-49.89 4.58-49.89 4.25L-49.89 4.25Q-49.89 4.13-49.93 3.99L-49.93 3.99L-51.29 0.33L-53.92 0.33L-55.24 3.93Q-55.28 4.05-55.28 4.16L-55.28 4.16Q-55.28 4.36-55.17 4.47Q-55.07 4.58-54.95 4.58L-54.95 4.58L-54.87 4.58L-54.87 4.73L-56.55 4.73L-56.55 4.58L-56.47 4.58Q-56.27 4.58-56.09 4.35Q-55.90 4.11-55.78 3.80L-55.78 3.80L-52.33-5.39L-48.95 3.71Q-48.85 4.01-48.66 4.30Q-48.47 4.58-48.17 4.58L-48.17 4.58L-48.10 4.58L-48.10 4.73L-50.32 4.73ZM-52.61-3.33L-53.77-0.18L-51.45-0.18L-52.61-3.33Z"/><path fill="#476C5E" opacity="1" d=""/><path fill="#476C5E" opacity="1" d="M-28.05 3.09L-27.40 3.62Q-27.08 3.89-26.80 4.10L-26.80 4.10Q-26.54 4.28-26.27 4.43Q-26.00 4.58-25.79 4.58L-25.79 4.58L-25.79 4.73L-26.63 4.73Q-27.20 4.73-27.64 4.51Q-28.08 4.30-28.47 3.99L-28.47 3.99L-29.96 2.82Q-30.77 3.92-31.64 4.39Q-32.51 4.87-33.56 4.87L-33.56 4.87Q-34.24 4.87-34.77 4.66Q-35.31 4.46-35.68 4.12Q-36.05 3.78-36.24 3.33Q-36.44 2.88-36.44 2.40L-36.44 2.40Q-36.44 1.36-35.91 0.63Q-35.38-0.10-34.15-0.69L-34.15-0.69Q-34.87-1.29-35.26-1.88Q-35.65-2.47-35.65-3.10L-35.65-3.10Q-35.65-3.54-35.49-3.93Q-35.32-4.32-35.02-4.61Q-34.72-4.91-34.32-5.08Q-33.92-5.25-33.44-5.25L-33.44-5.25Q-32.87-5.25-32.43-5.06Q-31.99-4.86-31.69-4.55Q-31.39-4.23-31.24-3.82Q-31.09-3.40-31.09-2.98L-31.09-2.98Q-31.09-2.42-31.44-1.82Q-31.78-1.22-32.64-0.72L-32.64-0.72Q-31.95-0.15-31.21 0.47Q-30.47 1.09-29.75 1.66L-29.75 1.66Q-29.45 1.06-29.26 0.45Q-29.07-0.15-28.96-0.65Q-28.85-1.16-28.81-1.53Q-28.77-1.91-28.77-2.08L-28.77-2.08Q-28.77-2.27-28.92-2.43Q-29.07-2.59-29.25-2.59L-29.25-2.59L-29.25-2.74L-27.70-2.74L-27.70-2.59Q-27.85-2.59-28.01-2.45Q-28.17-2.30-28.20-2.09L-28.20-2.09Q-28.29-1.31-28.45-0.57L-28.45-0.57Q-28.59 0.06-28.82 0.76Q-29.04 1.45-29.37 1.96L-29.37 1.96Q-29.07 2.25-28.72 2.53Q-28.38 2.82-28.05 3.09L-28.05 3.09ZM-34.72-3.15L-34.72-3.15Q-34.61-2.62-34.13-2.11Q-33.65-1.59-33.09-1.13L-33.09-1.13Q-32.51-1.37-32.19-1.86Q-31.87-2.35-31.87-2.81L-31.87-2.81Q-31.87-3.18-31.99-3.52Q-32.10-3.87-32.32-4.15Q-32.54-4.43-32.87-4.60Q-33.21-4.77-33.67-4.77L-33.67-4.77Q-34.16-4.77-34.46-4.38Q-34.75-3.99-34.75-3.45L-34.75-3.45Q-34.75-3.37-34.75-3.30Q-34.75-3.22-34.72-3.15ZM-33.12 4.34L-33.12 4.34Q-32.38 4.34-31.65 3.83Q-30.92 3.32-30.32 2.50L-30.32 2.50Q-31.15 1.81-32.01 1.09Q-32.87 0.38-33.70-0.30L-33.70-0.30Q-34.61 0.14-35.05 0.79Q-35.49 1.43-35.49 2.10L-35.49 2.10Q-35.49 2.50-35.31 2.89Q-35.13 3.29-34.81 3.60Q-34.49 3.92-34.06 4.12Q-33.62 4.33-33.12 4.34Z"/><path fill="#476C5E" opacity="1" d=""/><path fill="#476C5E" opacity="1" d="M-12.35 4.58L-12.35 4.58L-12.28 4.58L-12.28 4.73L-13.95 4.73L-13.95 4.58L-13.87 4.58Q-13.77 4.58-13.67 4.49Q-13.57 4.40-13.51 4.28Q-13.45 4.16-13.41 4.02Q-13.38 3.87-13.38 3.75L-13.38 3.75L-13.38-4.28Q-13.38-4.38-13.40-4.52Q-13.42-4.65-13.48-4.77Q-13.54-4.89-13.65-4.98Q-13.75-5.06-13.90-5.06L-13.90-5.06L-13.98-5.06L-13.98-5.21L-12.46-5.21L-6.99 3.41L-6.99-4.28Q-6.99-4.38-7.03-4.52Q-7.06-4.65-7.13-4.77Q-7.20-4.89-7.29-4.98Q-7.38-5.06-7.50-5.06L-7.50-5.06L-7.58-5.06L-7.58-5.21L-5.89-5.21L-5.89-5.06L-5.96-5.06Q-6.09-5.06-6.18-4.98Q-6.27-4.89-6.33-4.77Q-6.40-4.65-6.43-4.52Q-6.46-4.38-6.46-4.28L-6.46-4.28L-6.46 4.73L-7.40 4.73L-12.85-3.91L-12.85 3.75Q-12.85 3.87-12.82 4.02Q-12.79 4.16-12.72 4.28Q-12.65 4.40-12.56 4.49Q-12.47 4.58-12.35 4.58Z"/><path fill="#476C5E" opacity="1" d="M-1.01 4.73L-1.01 4.58L-0.93 4.58Q-0.81 4.58-0.72 4.50Q-0.63 4.42-0.56 4.30Q-0.50 4.17-0.46 4.04Q-0.42 3.90-0.42 3.78L-0.42 3.78L-0.42-4.28Q-0.42-4.38-0.46-4.52Q-0.50-4.65-0.56-4.77Q-0.63-4.89-0.72-4.98Q-0.81-5.06-0.93-5.06L-0.93-5.06L-1.01-5.06L-1.01-5.21L4.79-5.21L4.79-3.81L4.64-3.81Q4.61-4.16 4.37-4.42Q4.13-4.68 3.62-4.68L3.62-4.68L0.59-4.68L0.59-0.87L3.09-0.87Q3.43-0.87 3.67-1.08Q3.90-1.29 3.90-1.58L3.90-1.58L4.05-1.58L4.05 0.30L3.90 0.30Q3.90 0.03 3.68-0.16Q3.45-0.36 3.09-0.36L3.09-0.36L0.59-0.36L0.59 4.20L3.89 4.20Q4.17 4.20 4.38 4.07Q4.59 3.93 4.74 3.75Q4.88 3.56 4.95 3.34Q5.02 3.12 5.02 2.97L5.02 2.97L5.17 2.97L5.17 4.73L-1.01 4.73Z"/><path fill="#476C5E" opacity="1" d="M9.76-5.06L9.76-5.21L11.90-5.21L11.90-5.06L11.82-5.06Q11.70-5.06 11.61-4.98Q11.52-4.89 11.46-4.77Q11.39-4.65 11.36-4.52Q11.33-4.38 11.33-4.28L11.33-4.28L11.33 1.67Q11.33 2.26 11.45 2.76Q11.57 3.26 11.85 3.62Q12.14 3.98 12.61 4.18Q13.07 4.39 13.75 4.39L13.75 4.39Q14.51 4.39 14.96 4.14Q15.41 3.90 15.65 3.52Q15.89 3.14 15.97 2.65Q16.04 2.17 16.04 1.70L16.04 1.70L16.04-4.28Q16.04-4.38 16.01-4.52Q15.98-4.65 15.91-4.77Q15.85-4.89 15.76-4.98Q15.67-5.06 15.56-5.06L15.56-5.06L15.48-5.06L15.48-5.21L17.13-5.21L17.13-5.06L17.05-5.06Q16.93-5.06 16.85-4.98Q16.76-4.89 16.70-4.77Q16.63-4.65 16.60-4.52Q16.57-4.38 16.57-4.28L16.57-4.28L16.57 1.66Q16.57 2.64 16.33 3.26Q16.09 3.89 15.67 4.25Q15.24 4.61 14.68 4.75Q14.11 4.88 13.48 4.88L13.48 4.88Q12.80 4.88 12.22 4.74Q11.64 4.60 11.22 4.23Q10.80 3.87 10.56 3.25Q10.32 2.62 10.32 1.67L10.32 1.67L10.32-4.28Q10.32-4.38 10.29-4.52Q10.26-4.65 10.19-4.77Q10.12-4.89 10.03-4.98Q9.94-5.06 9.84-5.06L9.84-5.06L9.76-5.06Z"/><path fill="#476C5E" opacity="1" d="M24.07 4.58L24.07 4.58L24.15 4.58L24.15 4.73L22.02 4.73L22.02 4.58L22.10 4.58Q22.20 4.58 22.29 4.49Q22.38 4.40 22.45 4.28Q22.52 4.16 22.55 4.02Q22.58 3.87 22.58 3.75L22.58 3.75L22.58-4.28Q22.58-4.38 22.55-4.52Q22.52-4.65 22.45-4.77Q22.38-4.89 22.29-4.98Q22.20-5.06 22.10-5.06L22.10-5.06L22.02-5.06L22.02-5.21L24.64-5.21Q26.15-5.21 26.97-4.62Q27.79-4.03 27.79-2.89L27.79-2.89Q27.79-2.32 27.60-1.89Q27.41-1.46 27.10-1.15Q26.78-0.84 26.35-0.65Q25.92-0.46 25.44-0.37L25.44-0.37L26.53 1.28Q26.92 1.88 27.32 2.46Q27.73 3.04 28.12 3.66L28.12 3.66Q28.23 3.81 28.36 3.98Q28.48 4.14 28.63 4.28Q28.77 4.42 28.93 4.50Q29.09 4.58 29.25 4.58L29.25 4.58L29.25 4.73L28.60 4.73Q28.00 4.73 27.62 4.44Q27.23 4.14 26.98 3.75L26.98 3.75Q26.30 2.76 25.63 1.73Q24.96 0.71 24.30-0.28L24.30-0.28Q24.13-0.30 23.94-0.32Q23.75-0.34 23.59-0.37L23.59-0.37L23.59 3.75Q23.59 3.87 23.62 4.02Q23.65 4.16 23.72 4.28Q23.78 4.40 23.87 4.49Q23.95 4.58 24.07 4.58ZM23.81-4.70L23.59-4.70L23.59-0.87L23.66-0.87Q23.78-0.86 24.05-0.85Q24.31-0.84 24.70-0.84L24.70-0.84Q25.02-0.84 25.37-0.94Q25.73-1.04 26.04-1.27Q26.34-1.50 26.55-1.88Q26.75-2.26 26.75-2.83L26.75-2.83Q26.75-3.40 26.53-3.76Q26.31-4.13 25.93-4.34Q25.55-4.55 25.00-4.62Q24.46-4.70 23.81-4.70L23.81-4.70Z"/><path fill="#476C5E" opacity="1" d="M38.70-5.36L38.70-5.36Q39.87-5.36 40.81-4.95Q41.74-4.53 42.39-3.83Q43.05-3.13 43.40-2.20Q43.76-1.28 43.76-0.27L43.76-0.27Q43.76 0.86 43.34 1.81Q42.93 2.76 42.21 3.44Q41.48 4.11 40.53 4.50Q39.57 4.88 38.49 4.88L38.49 4.88Q37.33 4.88 36.40 4.46Q35.47 4.04 34.83 3.35Q34.19 2.65 33.85 1.75Q33.50 0.85 33.50-0.13L33.50-0.13Q33.50-1.10 33.85-2.04Q34.19-2.98 34.86-3.72Q35.53-4.46 36.50-4.91Q37.46-5.36 38.70-5.36ZM38.68 4.36L38.68 4.36Q39.69 4.31 40.45 3.90Q41.21 3.48 41.72 2.84Q42.24 2.20 42.48 1.43Q42.73 0.66 42.73-0.09L42.73-0.09Q42.73-0.92 42.43-1.76Q42.13-2.60 41.57-3.29Q41.02-3.97 40.24-4.40Q39.46-4.83 38.50-4.83L38.50-4.83Q37.57-4.83 36.83-4.42Q36.09-4.00 35.57-3.36Q35.05-2.71 34.78-1.91Q34.51-1.11 34.51-0.34L34.51-0.34Q34.51 0.48 34.83 1.32Q35.14 2.16 35.70 2.83Q36.26 3.51 37.02 3.93Q37.78 4.36 38.68 4.36Z"/><path fill="#476C5E" opacity="1" d="M48.53-5.06L48.53-5.21L50.67-5.21Q52.34-5.21 53.21-4.57Q54.08-3.93 54.08-2.75L54.08-2.75Q54.08-2.12 53.77-1.62Q53.47-1.13 52.98-0.79Q52.49-0.45 51.88-0.27Q51.27-0.09 50.67-0.09L50.67-0.09L50.10-0.09L50.10 3.75Q50.10 3.87 50.13 4.02Q50.16 4.16 50.23 4.28Q50.29 4.40 50.38 4.49Q50.46 4.58 50.58 4.58L50.58 4.58L50.66 4.58L50.66 4.73L48.53 4.73L48.53 4.58L48.61 4.58Q48.71 4.58 48.80 4.49Q48.89 4.40 48.95 4.28Q49.01 4.16 49.04 4.02Q49.07 3.87 49.07 3.75L49.07 3.75L49.07-4.28Q49.07-4.49 48.95-4.76Q48.83-5.03 48.61-5.06L48.61-5.06L48.53-5.06ZM50.31-4.68L50.10-4.68L50.10-0.62L50.55-0.62Q51.15-0.62 51.63-0.78Q52.10-0.95 52.42-1.22Q52.73-1.49 52.90-1.84Q53.07-2.18 53.07-2.54L53.07-2.54Q53.07-2.98 52.92-3.36Q52.78-3.75 52.46-4.04Q52.13-4.34 51.61-4.51Q51.08-4.68 50.31-4.68L50.31-4.68Z"/><path fill="#476C5E" opacity="1" d="M64.92 2.07L64.92 2.07Q64.92 2.82 64.62 3.35Q64.32 3.89 63.84 4.22Q63.37 4.55 62.77 4.70Q62.18 4.85 61.59 4.85L61.59 4.85Q60.99 4.85 60.55 4.73Q60.12 4.61 59.75 4.51L59.75 4.51Q59.51 4.43 59.32 4.38Q59.12 4.33 58.93 4.33L58.93 4.33L58.93 2.61L59.08 2.61Q59.08 3.18 59.37 3.52Q59.66 3.86 60.06 4.04Q60.45 4.22 60.84 4.27Q61.23 4.33 61.41 4.33L61.41 4.33Q62.06 4.33 62.53 4.14Q62.99 3.95 63.29 3.64Q63.60 3.33 63.74 2.95Q63.88 2.58 63.88 2.19L63.88 2.19Q63.88 1.69 63.67 1.35Q63.46 1.01 63.12 0.76Q62.78 0.50 62.34 0.32Q61.91 0.14 61.46-0.04L61.46-0.04Q60.94-0.24 60.45-0.45Q59.95-0.66 59.56-0.97Q59.17-1.28 58.93-1.71Q58.68-2.14 58.68-2.77L58.68-2.77Q58.68-3.43 58.94-3.92Q59.20-4.41 59.63-4.73Q60.06-5.04 60.61-5.20Q61.15-5.36 61.73-5.36L61.73-5.36Q62.12-5.36 62.47-5.31Q62.81-5.25 63.13-5.18L63.13-5.18Q63.38-5.12 63.63-5.08Q63.87-5.04 64.09-5.04L64.09-5.04L64.09-3.49L63.94-3.49Q63.91-4.28 63.32-4.55Q62.74-4.83 61.70-4.83L61.70-4.83Q61.09-4.83 60.71-4.63Q60.33-4.43 60.10-4.13Q59.87-3.84 59.79-3.50Q59.71-3.16 59.71-2.91L59.71-2.91Q59.71-2.48 59.90-2.18Q60.09-1.88 60.40-1.65Q60.72-1.43 61.13-1.25Q61.55-1.07 62.00-0.90L62.00-0.90Q62.51-0.71 63.04-0.48Q63.56-0.25 63.98 0.08Q64.39 0.41 64.66 0.89Q64.92 1.37 64.92 2.07Z"/><path fill="#476C5E" opacity="1" d="M69.73-5.06L69.73-5.21L71.88-5.21L71.88-5.06L71.80-5.06Q71.70-5.06 71.61-4.98Q71.52-4.89 71.46-4.78Q71.40-4.67 71.36-4.52Q71.32-4.38 71.32-4.28L71.32-4.28L71.32 3.75Q71.32 3.87 71.35 4.02Q71.38 4.16 71.45 4.28Q71.52 4.40 71.60 4.49Q71.68 4.58 71.80 4.58L71.80 4.58L71.88 4.58L71.88 4.73L69.73 4.73L69.73 4.58L69.80 4.58Q69.92 4.58 70.01 4.50Q70.10 4.42 70.17 4.29Q70.24 4.16 70.27 4.02Q70.30 3.87 70.30 3.75L70.30 3.75L70.30-4.28Q70.30-4.38 70.27-4.52Q70.24-4.65 70.17-4.77Q70.10-4.89 70.01-4.98Q69.92-5.06 69.80-5.06L69.80-5.06L69.73-5.06Z"/><path fill="#476C5E" opacity="1" d="M82.09-4.82L82.09-4.82Q80.98-4.82 80.16-4.42Q79.34-4.02 78.79-3.38Q78.25-2.74 77.99-1.94Q77.72-1.14 77.72-0.36L77.72-0.36Q77.72 0.53 78.07 1.38Q78.42 2.23 79.03 2.89Q79.64 3.54 80.45 3.94Q81.26 4.34 82.21 4.34L82.21 4.34Q82.48 4.34 82.85 4.28Q83.22 4.22 83.58 4.05Q83.94 3.87 84.25 3.56Q84.56 3.24 84.73 2.73L84.73 2.73L84.88 2.73L84.88 4.40Q84.65 4.40 84.40 4.46Q84.16 4.52 83.85 4.60L83.85 4.60Q83.46 4.70 82.99 4.79Q82.51 4.88 81.99 4.88L81.99 4.88Q80.68 4.88 79.68 4.43Q78.69 3.98 78.03 3.26Q77.36 2.53 77.03 1.62Q76.70 0.71 76.70-0.22L76.70-0.22Q76.70-1.16 77.03-2.08Q77.36-3.00 78.04-3.73Q78.72-4.46 79.74-4.91Q80.77-5.36 82.15-5.36L82.15-5.36Q82.65-5.36 83.05-5.27Q83.45-5.18 83.76-5.09L83.76-5.09Q83.99-5.01 84.18-4.98Q84.37-4.94 84.55-4.94L84.55-4.94L84.55-3.27L84.40-3.27Q84.31-3.73 84.07-4.04Q83.82-4.35 83.50-4.52Q83.18-4.68 82.81-4.75Q82.44-4.82 82.09-4.82Z"/><path fill="#476C5E" opacity="1" d="M94.04-5.36L94.04-5.36Q95.21-5.36 96.15-4.95Q97.08-4.53 97.73-3.83Q98.39-3.13 98.74-2.20Q99.10-1.28 99.10-0.27L99.10-0.27Q99.10 0.86 98.68 1.81Q98.27 2.76 97.55 3.44Q96.82 4.11 95.87 4.50Q94.91 4.88 93.83 4.88L93.83 4.88Q92.67 4.88 91.74 4.46Q90.81 4.04 90.17 3.35Q89.53 2.65 89.19 1.75Q88.84 0.85 88.84-0.13L88.84-0.13Q88.84-1.10 89.19-2.04Q89.53-2.98 90.20-3.72Q90.87-4.46 91.84-4.91Q92.80-5.36 94.04-5.36ZM94.02 4.36L94.02 4.36Q95.03 4.31 95.79 3.90Q96.55 3.48 97.06 2.84Q97.58 2.20 97.83 1.43Q98.07 0.66 98.07-0.09L98.07-0.09Q98.07-0.92 97.77-1.76Q97.47-2.60 96.91-3.29Q96.36-3.97 95.58-4.40Q94.81-4.83 93.84-4.83L93.84-4.83Q92.91-4.83 92.17-4.42Q91.43-4.00 90.91-3.36Q90.39-2.71 90.12-1.91Q89.85-1.11 89.85-0.34L89.85-0.34Q89.85 0.48 90.17 1.32Q90.48 2.16 91.04 2.83Q91.60 3.51 92.36 3.93Q93.12 4.36 94.02 4.36ZM92.79-5.54L92.74-5.63L94.88-7.24L95.27-6.57L92.79-5.54Z"/><path fill="#476C5E" opacity="1" d="M103.89 4.73L103.89 4.58L103.96 4.58Q104.08 4.58 104.17 4.50Q104.26 4.42 104.33 4.30Q104.40 4.17 104.44 4.04Q104.48 3.90 104.48 3.78L104.48 3.78L104.48-4.28Q104.48-4.38 104.44-4.52Q104.40-4.65 104.33-4.77Q104.26-4.89 104.17-4.98Q104.08-5.06 103.96-5.06L103.96-5.06L103.89-5.06L103.89-5.21L106.06-5.21L106.06-5.06L105.98-5.06Q105.86-5.06 105.77-4.98Q105.68-4.89 105.62-4.77Q105.56-4.65 105.52-4.52Q105.48-4.38 105.48-4.28L105.48-4.28L105.48 4.17L108.78 4.17Q109.07 4.17 109.28 4.04Q109.49 3.90 109.63 3.70Q109.78 3.50 109.85 3.26Q109.91 3.03 109.91 2.83L109.91 2.83L110.06 2.83L110.06 4.73L103.89 4.73Z"/><path fill="#476C5E" opacity="1" d="M118.82-5.36L118.82-5.36Q119.99-5.36 120.92-4.95Q121.86-4.53 122.51-3.83Q123.17-3.13 123.52-2.20Q123.88-1.28 123.88-0.27L123.88-0.27Q123.88 0.86 123.46 1.81Q123.05 2.76 122.32 3.44Q121.60 4.11 120.65 4.50Q119.69 4.88 118.60 4.88L118.60 4.88Q117.44 4.88 116.52 4.46Q115.59 4.04 114.95 3.35Q114.31 2.65 113.96 1.75Q113.62 0.85 113.62-0.13L113.62-0.13Q113.62-1.10 113.96-2.04Q114.31-2.98 114.98-3.72Q115.65-4.46 116.62-4.91Q117.58-5.36 118.82-5.36ZM118.80 4.36L118.80 4.36Q119.81 4.31 120.57 3.90Q121.33 3.48 121.84 2.84Q122.35 2.20 122.60 1.43Q122.85 0.66 122.85-0.09L122.85-0.09Q122.85-0.92 122.55-1.76Q122.25-2.60 121.69-3.29Q121.13-3.97 120.36-4.40Q119.58-4.83 118.62-4.83L118.62-4.83Q117.69-4.83 116.95-4.42Q116.21-4.00 115.69-3.36Q115.17-2.71 114.90-1.91Q114.63-1.11 114.63-0.34L114.63-0.34Q114.63 0.48 114.94 1.32Q115.26 2.16 115.82 2.83Q116.38 3.51 117.14 3.93Q117.90 4.36 118.80 4.36Z"/><path fill="#476C5E" opacity="1" d="M134.77-0.36L134.77-0.51L136.92-0.51L136.92-0.36L136.85-0.36Q136.72-0.36 136.63-0.28Q136.54-0.19 136.48-0.07Q136.42 0.05 136.39 0.18Q136.35 0.32 136.35 0.42L136.35 0.42L136.35 4.46Q136.08 4.57 135.73 4.64Q135.38 4.72 135.01 4.77Q134.63 4.82 134.24 4.85Q133.85 4.88 133.52 4.88L133.52 4.88Q132.16 4.88 131.15 4.43Q130.14 3.98 129.48 3.25Q128.82 2.52 128.49 1.60Q128.17 0.68 128.17-0.25L128.17-0.25Q128.17-1.19 128.49-2.11Q128.82-3.03 129.49-3.75Q130.16-4.47 131.17-4.92Q132.19-5.36 133.59-5.36L133.59-5.36Q134.12-5.36 134.57-5.27Q135.02-5.18 135.37-5.10L135.37-5.10Q135.57-5.06 135.71-5.02Q135.85-4.98 135.96-4.98L135.96-4.98L136.09-4.98L136.09-3.39L135.94-3.39Q135.85-3.85 135.59-4.14Q135.32-4.43 134.98-4.58Q134.63-4.73 134.25-4.78Q133.86-4.83 133.53-4.83L133.53-4.83Q132.40-4.83 131.57-4.43Q130.74-4.03 130.22-3.40Q129.69-2.77 129.43-1.98Q129.18-1.19 129.18-0.40L129.18-0.40Q129.18 0.47 129.51 1.32Q129.84 2.17 130.44 2.84Q131.05 3.51 131.90 3.93Q132.75 4.34 133.79 4.34L133.79 4.34Q134.07 4.34 134.50 4.27Q134.92 4.20 135.34 3.96L135.34 3.96L135.34 0.42Q135.34 0.32 135.31 0.18Q135.28 0.05 135.21-0.07Q135.14-0.19 135.05-0.28Q134.96-0.36 134.84-0.36L134.84-0.36L134.77-0.36Z"/><path fill="#476C5E" opacity="1" d="M147.40 4.73L147.40 4.58L147.48 4.58Q147.84 4.58 147.84 4.25L147.84 4.25Q147.84 4.13 147.80 3.99L147.80 3.99L146.44 0.33L143.80 0.33L142.49 3.93Q142.45 4.05 142.45 4.16L142.45 4.16Q142.45 4.36 142.55 4.47Q142.66 4.58 142.78 4.58L142.78 4.58L142.86 4.58L142.86 4.73L141.18 4.73L141.18 4.58L141.26 4.58Q141.45 4.58 141.64 4.35Q141.83 4.11 141.95 3.80L141.95 3.80L145.40-5.39L148.78 3.71Q148.88 4.01 149.07 4.30Q149.26 4.58 149.56 4.58L149.56 4.58L149.63 4.58L149.63 4.73L147.40 4.73ZM145.11-3.33L143.95-0.18L146.27-0.18L145.11-3.33Z"/></g></svg>