<svg width="500" height="500" viewBox="0 0 500 500" fill="none" xmlns="http://www.w3.org/2000/svg">
<path d="M471.684 184.419C469.454 187.655 466.655 190.147 463.332 191.721C459.156 193.711 454.673 194.695 450.169 194.695C446.43 194.695 442.647 194.017 438.996 192.64C429.42 189.054 421.395 181.139 416.957 170.95C415.033 166.533 417.066 161.373 421.483 159.449C425.899 157.503 431.059 159.537 432.984 163.975C435.52 169.769 440.046 174.383 445.119 176.263C447.677 177.225 451.59 177.925 455.811 175.913C456.882 175.388 458.434 173.399 459.243 169.419C461.911 156.541 455.723 132.424 430.316 103.342C408.408 78.2632 386.15 77.2137 372.831 79.7504C379.413 86.6816 383.152 91.8855 383.633 92.5633C386.388 96.5209 385.425 101.965 381.49 104.72C379.959 105.792 378.21 106.295 376.483 106.295C373.728 106.295 371.017 105.005 369.312 102.578C368.962 102.097 334.569 54.0814 280.19 54.0814C264.885 54.0814 243.217 56.3554 220.131 65.4732C227.062 69.868 232.112 75.2686 234.78 81.5874C238.497 90.3551 237.273 99.2538 231.325 106.645C221.53 118.845 199.315 126.016 176.182 129.603C173.843 133.189 169.82 141.65 172.378 155.119C173.274 159.864 170.148 164.433 165.425 165.33C164.878 165.439 164.332 165.483 163.785 165.483C159.674 165.483 156.001 162.553 155.214 158.355C153.159 147.466 154.23 138.655 156.286 131.811C139.428 133.014 123.882 132.467 114.371 130.718C109.626 129.843 106.478 125.274 107.374 120.529C108.249 115.784 112.797 112.636 117.563 113.532C145.003 118.627 204.848 111.718 217.706 95.6907C219.608 93.3075 219.892 91.2741 218.668 88.4097C215.432 80.757 203.1 74.5909 185.696 71.9019C152.942 66.8293 105.782 75.2473 86.7344 97.5927C65.4163 122.606 79.9784 164.061 80.1312 164.453C81.7711 169.001 79.4097 174.008 74.8837 175.648C73.8998 175.998 72.894 176.173 71.9101 176.173C68.3461 176.173 65.0007 173.986 63.6887 170.423C63.3607 169.526 59.9279 159.796 58.3537 146.393C48.2085 147.29 32.2034 150.635 20.1999 162.376C10.1856 172.15 5.11328 185.924 5.11328 203.307C5.11328 266.781 54.1775 298.35 87.3274 299.688L88.7267 299.754C98.1286 300.125 116.539 300.869 130.794 292.56C127.165 280.053 125.437 266.738 125.437 253.663C125.437 221.675 144.766 198.651 162.848 187.782C178.415 178.424 194.399 176.412 205.637 182.359C214.274 186.951 219.018 194.756 219.018 204.333C219.018 222.022 202.926 241.153 187.38 249.419C183.116 251.671 177.825 250.074 175.551 245.789C173.277 241.525 174.895 236.234 179.181 233.96C190.878 227.75 201.548 213.626 201.548 204.311C201.548 201.228 200.368 199.326 197.438 197.795C192.868 195.369 183.182 195.959 171.878 202.759C157.885 211.155 142.951 228.953 142.951 253.638C142.951 273.447 148.089 338.035 214.144 338.035C253.938 338.035 278.86 299.946 295.373 274.717C300.839 266.365 305.168 259.762 309.279 255.629C312.799 252.087 316.691 248.72 320.604 245.353C333.067 234.574 343.846 225.26 343.846 210.217C343.846 193.14 331.886 188.811 330.531 188.374C325.983 186.909 323.381 182.033 324.781 177.464C326.18 172.894 330.903 170.27 335.516 171.604C344.437 174.184 361.339 185.597 361.339 210.217C361.339 222.92 356.55 232.65 350.013 240.849C380.842 239.166 399.318 260.287 399.559 260.571C402.663 264.266 402.204 269.776 398.509 272.903C396.869 274.28 394.858 274.958 392.868 274.958C390.397 274.958 387.927 273.908 386.199 271.897C385.106 270.629 361.077 243.976 321.04 268.683C318.22 271.744 314.415 277.516 309.977 284.294C294.037 308.652 268.215 347.942 226.234 354.48C226.519 355.967 227.043 357.585 228.29 359.203C231.57 363.532 241.627 370.747 271.844 370.113C332.144 369.326 360.394 425.868 368.091 445H392.054C384.292 429.214 373.863 402.867 378.695 383.082C384.292 360.167 399.422 359.621 414.094 359.096C422.227 358.79 431.455 358.462 442.758 355.335C458.938 350.831 461.649 337.45 461.409 328.048C454.521 329.972 447.525 330.847 440.769 330.956C426.119 331.219 412.519 326.977 399.357 322.91C370.845 314.142 350.249 307.802 329.435 347.114C327.86 350.088 324.843 351.771 321.695 351.771C320.317 351.771 318.918 351.443 317.606 350.766C313.342 348.514 311.702 343.2 313.976 338.937C341.548 286.833 374.999 297.131 404.519 306.205C416.392 309.856 428.68 313.639 440.531 313.464C445.45 313.399 454.087 313.246 463.007 309.222C463.926 308.479 464.997 307.867 466.221 307.539H466.265C480.674 299.471 494.886 280.186 494.886 233.547C494.886 215.159 484.676 194.54 471.688 184.373L471.684 184.419ZM129.613 204.272C127.951 208.798 122.9 211.116 118.374 209.454C100.576 202.894 96.3346 207.836 85.0744 221.086C83.4127 223.054 81.5761 225.131 79.6957 227.23C78.2526 232.259 76.7658 241.551 79.4114 246.296C80.0455 247.433 81.0731 248.679 83.8718 249.313C88.5946 250.384 91.5245 255.063 90.475 259.764C89.5567 263.831 85.949 266.586 81.948 266.586C81.3139 266.586 80.658 266.521 80.002 266.368C72.918 264.772 67.4298 260.749 64.1066 254.78C61.3735 249.86 60.4771 244.197 60.4771 238.862C58.5967 239.19 56.6945 239.387 54.8361 239.387C43.9693 239.387 33.715 234.27 27.9424 229.81C24.1161 226.858 23.3945 221.37 26.3463 217.544C29.298 213.718 34.7641 212.996 38.5905 215.926C40.3178 217.238 55.3389 227.995 65.4187 216.975C67.7145 214.483 69.7916 212.034 71.7375 209.738C83.7629 195.614 95.111 182.232 124.41 193.033C128.936 194.695 131.254 199.724 129.592 204.272L129.613 204.272ZM220.788 177.706C231.546 168.239 234.738 151.25 234.76 151.075C235.612 146.33 240.182 143.138 244.905 144.013C249.65 144.866 252.82 149.37 251.989 154.114C251.814 155.055 247.791 177.225 232.354 190.825C230.693 192.29 228.637 193.012 226.582 193.012C224.156 193.012 221.75 192.006 220.023 190.038C216.831 186.409 217.181 180.899 220.81 177.707L220.788 177.706ZM305.93 230.488C301.732 232.849 296.419 231.406 294.035 227.23C292.811 225.175 289.203 220.802 285.77 220.474C282.49 220.124 278.664 223.863 276.718 226.093C270.705 232.937 265.064 244.569 259.62 255.807C248.862 278.022 237.733 301.001 217.64 302.073C216.503 302.138 215.388 302.16 214.316 302.16C203.734 302.16 195.862 299.296 190.877 293.633C187.576 289.872 184.055 283.138 186.023 272.25C186.898 267.505 191.424 264.4 196.19 265.209C200.935 266.084 204.084 270.632 203.231 275.376C202.903 277.169 202.575 280.427 203.996 282.067C205.679 283.969 210.446 284.931 216.721 284.603C226.494 284.078 235.743 265.012 243.877 248.198C249.824 235.911 255.99 223.185 263.577 214.571C265.064 212.865 266.551 211.488 267.994 210.22C271.186 198.697 265.917 195.089 264.102 194.28C259.794 192.334 257.674 187.24 259.51 182.866C261.347 178.493 266.201 176.307 270.618 178.034C276.98 180.483 286.338 188.442 286.557 203.048C286.907 203.07 287.279 203.07 287.607 203.091C300.857 204.447 308.4 217.129 309.231 218.572C311.614 222.77 310.149 228.104 305.93 230.488ZM309.209 131.924C290.012 117.778 260.342 132.514 260.058 132.667C255.75 134.854 250.503 133.126 248.294 128.841C246.108 124.555 247.791 119.286 252.099 117.099C253.258 116.509 273.679 106.342 295.478 108.725C295.107 91.2769 306.17 83.9085 306.76 83.5369C310.827 80.9131 316.228 82.1157 318.852 86.1825C321.41 90.1619 320.317 95.4529 316.447 98.1206C315.966 98.5141 311.287 102.8 313.779 114.235C315.747 115.284 317.693 116.465 319.595 117.864C342.182 134.482 357.837 138.57 377.405 132.864C382.04 131.486 386.894 134.176 388.25 138.811C389.606 143.446 386.938 148.3 382.303 149.656C375.175 151.733 368.353 152.804 361.641 152.804C344.783 152.804 328.472 146.136 309.231 131.945L309.209 131.924ZM473.173 229.704C468.844 237.794 457.736 249.71 441.71 249.71C440.354 249.71 438.955 249.601 437.512 249.426C437.643 252.159 438.124 254.673 439.589 256.707C442.825 261.233 450.805 264.6 462.634 266.459C467.401 267.202 470.659 271.684 469.915 276.473C469.237 280.78 465.52 283.863 461.3 283.863C460.841 283.863 460.382 283.819 459.923 283.754C442.89 281.064 431.586 275.555 425.398 266.918C417.746 256.226 419.91 243.61 421.506 234.405C422.184 230.47 423.212 224.544 422.272 222.926C416.259 212.606 392.667 223.035 392.448 223.145C388.097 225.178 382.872 223.32 380.816 218.947C378.761 214.574 380.642 209.392 384.993 207.315C399.095 200.668 426.011 194.59 437.381 214.137C440.573 219.625 440.442 225.769 439.611 231.935C451.003 233.247 457.037 222.883 457.78 221.505C460.054 217.242 465.346 215.624 469.609 217.898C473.873 220.172 475.469 225.463 473.217 229.727L473.173 229.704Z" fill="white"/>
</svg>
