<svg width="500" height="500" viewBox="0 0 500 500" fill="none" xmlns="http://www.w3.org/2000/svg">
<path d="M314.738 280.061V279.181H315.178C315.584 279.181 315.964 279.008 316.318 278.661C316.671 278.308 316.981 277.894 317.248 277.421C317.508 276.954 317.698 276.441 317.818 275.881C317.931 275.328 317.988 274.814 317.988 274.341V228.061L295.288 281.031L273.728 230.781V274.341C273.728 274.814 273.788 275.328 273.908 275.881C274.021 276.441 274.211 276.954 274.478 277.421C274.738 277.894 275.044 278.308 275.398 278.661C275.751 279.008 276.161 279.181 276.628 279.181H277.068V280.061H267.478V279.181H267.918C268.331 279.181 268.714 279.008 269.068 278.661C269.414 278.308 269.708 277.894 269.948 277.421C270.181 276.954 270.354 276.441 270.468 275.881C270.588 275.328 270.648 274.814 270.648 274.341V227.441C270.648 227.028 270.588 226.558 270.468 226.031C270.354 225.504 270.181 225.008 269.948 224.541C269.708 224.068 269.414 223.671 269.068 223.351C268.714 223.024 268.331 222.861 267.918 222.861H267.478V221.981H276.458L296.868 270.121L317.288 221.981H327.228V222.861H326.788C326.321 222.861 325.911 223.024 325.558 223.351C325.204 223.671 324.898 224.068 324.638 224.541C324.371 225.008 324.181 225.504 324.068 226.031C323.948 226.558 323.888 227.028 323.888 227.441V274.341C323.888 274.814 323.948 275.328 324.068 275.881C324.181 276.441 324.371 276.954 324.638 277.421C324.898 277.894 325.204 278.308 325.558 278.661C325.911 279.008 326.321 279.181 326.788 279.181H327.228V280.061H314.738Z" fill="white"/>
<path d="M374.837 280.061V279.181H375.277C376.684 279.181 377.387 278.538 377.387 277.251C377.387 276.778 377.3 276.278 377.127 275.751L369.207 254.371H353.807L346.147 275.401C345.974 275.868 345.887 276.308 345.887 276.721C345.887 277.481 346.094 278.081 346.507 278.521C346.914 278.961 347.354 279.181 347.827 279.181H348.267V280.061H338.497V279.181H338.937C339.697 279.181 340.444 278.728 341.177 277.821C341.91 276.914 342.514 275.844 342.987 274.611L363.137 220.931L382.847 274.081C383.26 275.254 383.834 276.398 384.567 277.511C385.3 278.624 386.254 279.181 387.427 279.181H387.867V280.061H374.837ZM361.467 232.981L354.687 251.381H368.237L361.467 232.981Z" fill="white"/>
<path d="M209.895 239.806C209.531 240.335 209.074 240.742 208.53 241C207.848 241.325 207.115 241.486 206.379 241.486C205.768 241.486 205.15 241.375 204.553 241.15C202.988 240.564 201.676 239.27 200.951 237.605C200.637 236.883 200.969 236.04 201.691 235.725C202.413 235.407 203.256 235.74 203.57 236.465C203.985 237.412 204.725 238.166 205.554 238.473C205.972 238.63 206.611 238.745 207.301 238.416C207.476 238.33 207.73 238.005 207.862 237.355C208.298 235.25 207.287 231.308 203.134 226.555C199.554 222.457 195.916 222.285 193.739 222.7C194.815 223.833 195.426 224.683 195.505 224.794C195.955 225.441 195.798 226.33 195.155 226.781C194.904 226.956 194.619 227.038 194.336 227.038C193.886 227.038 193.443 226.827 193.164 226.431C193.107 226.352 187.486 218.505 178.599 218.505C176.097 218.505 172.556 218.876 168.783 220.366C169.916 221.085 170.741 221.967 171.177 223C171.785 224.433 171.584 225.887 170.612 227.095C169.012 229.089 165.381 230.261 161.6 230.847C161.218 231.433 160.56 232.816 160.978 235.018C161.125 235.793 160.614 236.54 159.842 236.686C159.753 236.704 159.663 236.711 159.574 236.711C158.902 236.711 158.302 236.233 158.173 235.546C157.837 233.767 158.012 232.327 158.348 231.208C155.593 231.405 153.053 231.315 151.498 231.03C150.723 230.887 150.208 230.14 150.355 229.364C150.498 228.589 151.241 228.074 152.02 228.221C156.504 229.054 166.285 227.924 168.387 225.305C168.697 224.915 168.744 224.583 168.544 224.115C168.015 222.864 166 221.857 163.155 221.417C157.802 220.588 150.094 221.964 146.981 225.616C143.497 229.704 145.877 236.479 145.902 236.543C146.17 237.286 145.784 238.105 145.044 238.373C144.884 238.43 144.719 238.459 144.559 238.459C143.976 238.459 143.429 238.101 143.215 237.519C143.161 237.372 142.6 235.782 142.343 233.591C140.685 233.738 138.069 234.285 136.107 236.204C134.471 237.801 133.642 240.052 133.642 242.893C133.642 253.267 141.66 258.427 147.078 258.645L147.307 258.656C148.844 258.717 151.852 258.838 154.182 257.48C153.589 255.436 153.307 253.26 153.307 251.123C153.307 245.895 156.466 242.132 159.421 240.356C161.965 238.826 164.577 238.498 166.414 239.47C167.826 240.22 168.601 241.496 168.601 243.061C168.601 245.952 165.971 249.079 163.43 250.429C162.733 250.797 161.869 250.537 161.497 249.836C161.125 249.139 161.39 248.275 162.09 247.903C164.002 246.888 165.746 244.58 165.746 243.057C165.746 242.553 165.553 242.243 165.074 241.992C164.327 241.596 162.744 241.692 160.897 242.804C158.61 244.176 156.169 247.085 156.169 251.119C156.169 254.357 157.009 264.912 167.804 264.912C174.308 264.912 178.381 258.687 181.08 254.564C181.973 253.199 182.681 252.12 183.353 251.444C183.928 250.866 184.564 250.315 185.204 249.765C187.241 248.003 189.002 246.481 189.002 244.022C189.002 241.232 187.048 240.524 186.826 240.453C186.083 240.213 185.658 239.416 185.886 238.67C186.115 237.923 186.887 237.494 187.641 237.712C189.099 238.133 191.861 239.999 191.861 244.022C191.861 246.099 191.079 247.689 190.01 249.029C195.049 248.754 198.068 252.206 198.108 252.252C198.615 252.856 198.54 253.757 197.936 254.268C197.668 254.493 197.339 254.603 197.014 254.603C196.61 254.603 196.207 254.432 195.924 254.103C195.746 253.896 191.818 249.54 185.275 253.578C184.814 254.078 184.192 255.021 183.467 256.129C180.862 260.11 176.642 266.532 169.78 267.6C169.827 267.843 169.913 268.107 170.116 268.372C170.652 269.079 172.296 270.259 177.235 270.155C187.09 270.026 191.707 279.267 192.965 282.394H196.881C195.613 279.814 193.908 275.508 194.698 272.275C195.613 268.53 198.085 268.44 200.483 268.355C201.812 268.304 203.32 268.251 205.168 267.74C207.812 267.004 208.255 264.817 208.216 263.28C207.09 263.595 205.947 263.738 204.843 263.755C202.448 263.798 200.226 263.105 198.075 262.44C193.415 261.008 190.049 259.971 186.647 266.396C186.39 266.882 185.896 267.157 185.382 267.157C185.157 267.157 184.928 267.104 184.714 266.993C184.017 266.625 183.749 265.757 184.12 265.06C188.627 256.544 194.094 258.227 198.918 259.71C200.859 260.307 202.867 260.925 204.804 260.897C205.608 260.886 207.019 260.861 208.477 260.203C208.627 260.082 208.802 259.982 209.003 259.928H209.01C211.365 258.61 213.687 255.458 213.687 247.835C213.687 244.83 212.019 241.46 209.896 239.799L209.895 239.806ZM153.989 243.051C153.718 243.791 152.892 244.169 152.152 243.898C149.244 242.826 148.55 243.633 146.71 245.799C146.438 246.12 146.138 246.46 145.831 246.803C145.595 247.625 145.352 249.144 145.784 249.919C145.888 250.105 146.056 250.309 146.513 250.412C147.285 250.587 147.764 251.352 147.593 252.12C147.443 252.785 146.853 253.235 146.199 253.235C146.095 253.235 145.988 253.225 145.881 253.199C144.723 252.939 143.826 252.281 143.283 251.306C142.836 250.502 142.69 249.576 142.69 248.704C142.383 248.758 142.072 248.79 141.768 248.79C139.992 248.79 138.316 247.954 137.373 247.225C136.747 246.742 136.629 245.845 137.112 245.22C137.594 244.595 138.488 244.477 139.113 244.956C139.395 245.17 141.85 246.928 143.498 245.127C143.873 244.72 144.212 244.319 144.53 243.944C146.496 241.636 148.35 239.449 153.139 241.214C153.878 241.486 154.257 242.308 153.986 243.051L153.989 243.051ZM168.89 238.709C170.648 237.162 171.17 234.385 171.174 234.357C171.313 233.581 172.06 233.06 172.832 233.202C173.607 233.342 174.125 234.078 173.99 234.853C173.961 235.007 173.303 238.631 170.781 240.853C170.509 241.093 170.173 241.211 169.837 241.211C169.441 241.211 169.048 241.046 168.765 240.725C168.244 240.131 168.301 239.231 168.894 238.709L168.89 238.709ZM182.805 247.335C182.119 247.721 181.251 247.486 180.861 246.803C180.661 246.467 180.072 245.752 179.511 245.699C178.975 245.642 178.349 246.253 178.031 246.617C177.049 247.736 176.127 249.637 175.237 251.474C173.479 255.104 171.66 258.86 168.376 259.035C168.19 259.046 168.008 259.049 167.833 259.049C166.103 259.049 164.817 258.581 164.002 257.656C163.462 257.041 162.887 255.94 163.209 254.161C163.351 253.385 164.091 252.878 164.87 253.01C165.646 253.153 166.16 253.896 166.021 254.672C165.967 254.965 165.914 255.497 166.146 255.765C166.421 256.076 167.2 256.233 168.226 256.18C169.823 256.094 171.334 252.978 172.664 250.23C173.636 248.222 174.644 246.142 175.883 244.734C176.126 244.455 176.369 244.23 176.605 244.023C177.127 242.14 176.266 241.55 175.969 241.418C175.265 241.1 174.919 240.267 175.219 239.552C175.519 238.838 176.312 238.48 177.034 238.763C178.074 239.163 179.603 240.464 179.639 242.851C179.696 242.854 179.757 242.854 179.811 242.858C181.976 243.08 183.209 245.152 183.345 245.388C183.734 246.074 183.495 246.946 182.805 247.335ZM183.341 231.227C180.204 228.915 175.355 231.323 175.308 231.348C174.604 231.706 173.747 231.423 173.386 230.723C173.028 230.022 173.304 229.161 174.008 228.804C174.197 228.707 177.535 227.046 181.097 227.435C181.037 224.584 182.845 223.379 182.941 223.319C183.606 222.89 184.488 223.086 184.917 223.751C185.335 224.401 185.157 225.266 184.524 225.702C184.446 225.766 183.681 226.467 184.088 228.336C184.41 228.507 184.728 228.7 185.039 228.929C188.73 231.645 191.289 232.313 194.487 231.38C195.244 231.155 196.038 231.595 196.259 232.352C196.481 233.11 196.045 233.903 195.287 234.125C194.122 234.464 193.007 234.639 191.91 234.639C189.155 234.639 186.49 233.549 183.345 231.23L183.341 231.227ZM210.139 247.207C209.431 248.53 207.616 250.477 204.996 250.477C204.775 250.477 204.546 250.459 204.31 250.431C204.332 250.877 204.41 251.288 204.65 251.621C205.179 252.36 206.483 252.911 208.416 253.214C209.195 253.336 209.728 254.068 209.606 254.851C209.495 255.555 208.888 256.059 208.198 256.059C208.123 256.059 208.048 256.052 207.973 256.041C205.189 255.601 203.342 254.701 202.331 253.289C201.08 251.542 201.434 249.48 201.695 247.976C201.805 247.332 201.973 246.364 201.82 246.1C200.837 244.413 196.981 246.117 196.946 246.135C196.234 246.468 195.38 246.164 195.044 245.449C194.709 244.735 195.016 243.888 195.727 243.548C198.032 242.462 202.431 241.469 204.289 244.663C204.811 245.56 204.789 246.564 204.653 247.572C206.515 247.786 207.502 246.093 207.623 245.867C207.995 245.171 208.859 244.906 209.556 245.278C210.253 245.649 210.514 246.514 210.146 247.211L210.139 247.207Z" fill="white"/>
<path d="M252.167 318.433V182.628C252.167 181.651 251.516 181 250.539 181C249.562 181 248.91 181.651 248.91 182.628V318.27C248.91 319.247 249.562 319.899 250.539 319.899C251.516 319.899 252.167 319.247 252.167 318.433Z" fill="white"/>
</svg>
